<svg width="30" height="28" viewBox="0 0 30 28" fill="none" xmlns="http://www.w3.org/2000/svg">
<path d="M10.2 6.5H12.7998C14.5066 8.13051 15.571 9.23634 16.6398 10.3467L16.64 10.347C17.7095 11.4581 18.7833 12.5738 20.5 14.214V21C20.5 21.1947 20.2758 21.5 19.8 21.5H10.2C9.72417 21.5 9.5 21.1947 9.5 21V7C9.5 6.80534 9.72417 6.5 10.2 6.5Z" stroke="black"/>
<path d="M13.5 12V7.20711L19.7929 13.5H15C14.1716 13.5 13.5 12.8284 13.5 12Z" stroke="black"/>
<rect x="11" y="19" width="8" height="1" fill="black"/>
<rect x="11" y="16" width="8" height="1" fill="black"/>
</svg>
