<svg width="30" height="28" viewBox="0 0 30 28" fill="none" xmlns="http://www.w3.org/2000/svg">
<rect x="7.5" y="6.5" width="15" height="15" stroke="black"/>
<path d="M8.63622 15.8068V15.2273L11.193 11.1818H11.6135V12.0795H11.3294L9.39759 15.1364V15.1818H12.8408V15.8068H8.63622ZM11.3749 17V15.6307V15.3608V11.1818H12.0453V17H11.3749ZM14.6054 16.2557C14.4652 16.2557 14.345 16.2055 14.2446 16.1051C14.1442 16.0047 14.094 15.8845 14.094 15.7443C14.094 15.6042 14.1442 15.4839 14.2446 15.3835C14.345 15.2831 14.4652 15.233 14.6054 15.233C14.7455 15.233 14.8658 15.2831 14.9662 15.3835C15.0666 15.4839 15.1168 15.6042 15.1168 15.7443C15.1168 15.8371 15.0931 15.9223 15.0457 16C15.0003 16.0777 14.9387 16.1402 14.8611 16.1875C14.7853 16.233 14.7001 16.2557 14.6054 16.2557ZM14.6054 13.3125C14.4652 13.3125 14.345 13.2623 14.2446 13.1619C14.1442 13.0616 14.094 12.9413 14.094 12.8011C14.094 12.661 14.1442 12.5407 14.2446 12.4403C14.345 12.34 14.4652 12.2898 14.6054 12.2898C14.7455 12.2898 14.8658 12.34 14.9662 12.4403C15.0666 12.5407 15.1168 12.661 15.1168 12.8011C15.1168 12.8939 15.0931 12.9792 15.0457 13.0568C15.0003 13.1345 14.9387 13.197 14.8611 13.2443C14.7853 13.2898 14.7001 13.3125 14.6054 13.3125ZM18.4744 17.0795C18.0994 17.0795 17.7652 17.0152 17.4716 16.8864C17.1799 16.7576 16.9479 16.5786 16.7756 16.3494C16.6051 16.1184 16.5123 15.8504 16.4972 15.5455H17.2131C17.2282 15.733 17.2926 15.8949 17.4062 16.0312C17.5199 16.1657 17.6686 16.2699 17.8523 16.3438C18.036 16.4176 18.2396 16.4545 18.4631 16.4545C18.7131 16.4545 18.9347 16.411 19.1278 16.3239C19.321 16.2367 19.4725 16.1155 19.5824 15.9602C19.6922 15.8049 19.7472 15.625 19.7472 15.4205C19.7472 15.2064 19.6941 15.018 19.5881 14.8551C19.482 14.6903 19.3267 14.5616 19.1222 14.4688C18.9176 14.3759 18.6676 14.3295 18.3722 14.3295H17.9062V13.7045H18.3722C18.6032 13.7045 18.8059 13.6629 18.9801 13.5795C19.1563 13.4962 19.2936 13.3788 19.392 13.2273C19.4924 13.0758 19.5426 12.8977 19.5426 12.6932C19.5426 12.4962 19.4991 12.3248 19.4119 12.179C19.3248 12.0331 19.2017 11.9195 19.0426 11.8381C18.8854 11.7566 18.6998 11.7159 18.4858 11.7159C18.285 11.7159 18.0956 11.7528 17.9176 11.8267C17.7415 11.8987 17.5975 12.0038 17.4858 12.142C17.3741 12.2784 17.3134 12.4432 17.304 12.6364H16.6222C16.6335 12.3314 16.7254 12.0644 16.8977 11.8352C17.0701 11.6042 17.2955 11.4242 17.5739 11.2955C17.8542 11.1667 18.1619 11.1023 18.4972 11.1023C18.857 11.1023 19.1657 11.1752 19.4233 11.321C19.6809 11.465 19.8788 11.6553 20.017 11.892C20.1553 12.1288 20.2244 12.3845 20.2244 12.6591C20.2244 12.9867 20.1383 13.2661 19.9659 13.4972C19.7955 13.7282 19.5634 13.8883 19.2699 13.9773V14.0227C19.6373 14.0833 19.9242 14.2396 20.1307 14.4915C20.3371 14.7415 20.4403 15.0511 20.4403 15.4205C20.4403 15.7367 20.3542 16.0208 20.1818 16.2727C20.0114 16.5227 19.7784 16.7197 19.483 16.8636C19.1875 17.0076 18.8513 17.0795 18.4744 17.0795Z" fill="black"/>
</svg>
