<svg width="30" height="28" viewBox="0 0 30 28" fill="none" xmlns="http://www.w3.org/2000/svg">
<rect x="7.5" y="7.5" width="15" height="15" stroke="black"/>
<path d="M8.63622 16.8068V16.2273L11.193 12.1818H11.6135V13.0795H11.3294L9.39759 16.1364V16.1818H12.8408V16.8068H8.63622ZM11.3749 18V16.6307V16.3608V12.1818H12.0453V18H11.3749ZM14.6054 17.2557C14.4652 17.2557 14.345 17.2055 14.2446 17.1051C14.1442 17.0047 14.094 16.8845 14.094 16.7443C14.094 16.6042 14.1442 16.4839 14.2446 16.3835C14.345 16.2831 14.4652 16.233 14.6054 16.233C14.7455 16.233 14.8658 16.2831 14.9662 16.3835C15.0666 16.4839 15.1168 16.6042 15.1168 16.7443C15.1168 16.8371 15.0931 16.9223 15.0457 17C15.0003 17.0777 14.9387 17.1402 14.8611 17.1875C14.7853 17.233 14.7001 17.2557 14.6054 17.2557ZM14.6054 14.3125C14.4652 14.3125 14.345 14.2623 14.2446 14.1619C14.1442 14.0616 14.094 13.9413 14.094 13.8011C14.094 13.661 14.1442 13.5407 14.2446 13.4403C14.345 13.34 14.4652 13.2898 14.6054 13.2898C14.7455 13.2898 14.8658 13.34 14.9662 13.4403C15.0666 13.5407 15.1168 13.661 15.1168 13.8011C15.1168 13.8939 15.0931 13.9792 15.0457 14.0568C15.0003 14.1345 14.9387 14.197 14.8611 14.2443C14.7853 14.2898 14.7001 14.3125 14.6054 14.3125ZM18.4744 18.0795C18.0994 18.0795 17.7652 18.0152 17.4716 17.8864C17.1799 17.7576 16.9479 17.5786 16.7756 17.3494C16.6051 17.1184 16.5123 16.8504 16.4972 16.5455H17.2131C17.2282 16.733 17.2926 16.8949 17.4062 17.0312C17.5199 17.1657 17.6686 17.2699 17.8523 17.3438C18.036 17.4176 18.2396 17.4545 18.4631 17.4545C18.7131 17.4545 18.9347 17.411 19.1278 17.3239C19.321 17.2367 19.4725 17.1155 19.5824 16.9602C19.6922 16.8049 19.7472 16.625 19.7472 16.4205C19.7472 16.2064 19.6941 16.018 19.5881 15.8551C19.482 15.6903 19.3267 15.5616 19.1222 15.4688C18.9176 15.3759 18.6676 15.3295 18.3722 15.3295H17.9062V14.7045H18.3722C18.6032 14.7045 18.8059 14.6629 18.9801 14.5795C19.1563 14.4962 19.2936 14.3788 19.392 14.2273C19.4924 14.0758 19.5426 13.8977 19.5426 13.6932C19.5426 13.4962 19.4991 13.3248 19.4119 13.179C19.3248 13.0331 19.2017 12.9195 19.0426 12.8381C18.8854 12.7566 18.6998 12.7159 18.4858 12.7159C18.285 12.7159 18.0956 12.7528 17.9176 12.8267C17.7415 12.8987 17.5975 13.0038 17.4858 13.142C17.3741 13.2784 17.3134 13.4432 17.304 13.6364H16.6222C16.6335 13.3314 16.7254 13.0644 16.8977 12.8352C17.0701 12.6042 17.2955 12.4242 17.5739 12.2955C17.8542 12.1667 18.1619 12.1023 18.4972 12.1023C18.857 12.1023 19.1657 12.1752 19.4233 12.321C19.6809 12.465 19.8788 12.6553 20.017 12.892C20.1553 13.1288 20.2244 13.3845 20.2244 13.6591C20.2244 13.9867 20.1383 14.2661 19.9659 14.4972C19.7955 14.7282 19.5634 14.8883 19.2699 14.9773V15.0227C19.6373 15.0833 19.9242 15.2396 20.1307 15.4915C20.3371 15.7415 20.4403 16.0511 20.4403 16.4205C20.4403 16.7367 20.3542 17.0208 20.1818 17.2727C20.0114 17.5227 19.7784 17.7197 19.483 17.8636C19.1875 18.0076 18.8513 18.0795 18.4744 18.0795Z" fill="black"/>
</svg>
