<svg width="30" height="30" viewBox="0 0 30 30" fill="none" xmlns="http://www.w3.org/2000/svg">
<path d="M7 24L9 18H18L7 24Z" fill="black"/>
<path fill-rule="evenodd" clip-rule="evenodd" d="M6 10C6 8.34315 7.34315 7 9 7H21C22.6569 7 24 8.34315 24 10V16C24 17.6569 22.6569 19 21 19H9C7.34315 19 6 17.6569 6 16V10ZM14 10C14 9.44772 14.4477 9 15 9C15.5523 9 16 9.44772 16 10V12H18C18.5523 12 19 12.4477 19 13C19 13.5523 18.5523 14 18 14H16V16C16 16.5523 15.5523 17 15 17C14.4477 17 14 16.5523 14 16V14H12C11.4477 14 11 13.5523 11 13C11 12.4477 11.4477 12 12 12H14V10Z" fill="black"/>
</svg>
