<svg width="30" height="30" viewBox="0 0 30 30" fill="none" xmlns="http://www.w3.org/2000/svg">
<path fill-rule="evenodd" clip-rule="evenodd" d="M13.836 8.78994C14.2546 7.73669 15.7454 7.73669 16.164 8.78994L16.3774 9.32706C16.6381 9.98306 17.3892 10.2941 18.0374 10.0146L18.5681 9.78577C19.6089 9.33699 20.663 10.3911 20.2142 11.4319L19.9854 11.9626C19.7059 12.6108 20.0169 13.3619 20.6729 13.6226L21.2101 13.836C22.2633 14.2546 22.2633 15.7454 21.2101 16.164L20.6729 16.3774C20.0169 16.6381 19.7059 17.3892 19.9854 18.0374L20.2142 18.5681C20.663 19.6089 19.6089 20.663 18.5681 20.2142L18.0374 19.9854C17.3892 19.7059 16.6381 20.0169 16.3774 20.6729L16.164 21.2101C15.7454 22.2633 14.2546 22.2633 13.836 21.2101L13.6226 20.6729C13.3619 20.0169 12.6108 19.7059 11.9626 19.9854L11.4319 20.2142C10.3911 20.663 9.33699 19.6089 9.78577 18.5681L10.0146 18.0374C10.2941 17.3892 9.98306 16.6381 9.32706 16.3774L8.78994 16.164C7.73669 15.7454 7.73669 14.2546 8.78994 13.836L9.32706 13.6226C9.98306 13.3619 10.2941 12.6108 10.0146 11.9626L9.78577 11.4319C9.33699 10.3911 10.3911 9.33699 11.4319 9.78577L11.9626 10.0146C12.6108 10.2941 13.3619 9.98306 13.6226 9.32706L13.836 8.78994ZM15 18.5C16.933 18.5 18.5 16.933 18.5 15C18.5 13.067 16.933 11.5 15 11.5C13.067 11.5 11.5 13.067 11.5 15C11.5 16.933 13.067 18.5 15 18.5Z" fill="black"/>
</svg>
