<svg width="30" height="30" viewBox="0 0 30 30" fill="none" xmlns="http://www.w3.org/2000/svg">
<path fill-rule="evenodd" clip-rule="evenodd" d="M8 9.5H18C18.2761 9.5 18.5 9.72386 18.5 10V12H20V10C20 8.89543 19.1046 8 18 8H8C6.89543 8 6 8.89543 6 10V16C6 17.1046 6.89543 18 8 18H10V16.5H8C7.72386 16.5 7.5 16.2761 7.5 16V10C7.5 9.72386 7.72386 9.5 8 9.5Z" fill="black"/>
<path d="M10 14C10 12.8954 10.8954 12 12 12H22C23.1046 12 24 12.8954 24 14V20C24 21.1046 23.1046 22 22 22H12C10.8954 22 10 21.1046 10 20V14Z" fill="black"/>
</svg>
