<svg width="30" height="30" viewBox="0 0 30 30" fill="none" xmlns="http://www.w3.org/2000/svg">
<path d="M20.3887 15C21.2786 15 22.0184 14.2693 21.8154 13.4029C21.6248 12.5896 21.2892 11.8127 20.8203 11.111C20.0511 9.95986 18.9579 9.06266 17.6788 8.53284C16.3997 8.00303 14.9922 7.86441 13.6344 8.1345C12.2765 8.4046 11.0292 9.07129 10.0503 10.0503C9.07128 11.0292 8.4046 12.2765 8.1345 13.6344C7.86441 14.9922 8.00303 16.3997 8.53284 17.6788C9.06266 18.9579 9.95986 20.0511 11.111 20.8203C11.8127 21.2892 12.5896 21.6248 13.4029 21.8154C14.2693 22.0184 15 21.2786 15 20.3887C15 19.4988 14.2473 18.8071 13.4371 18.4389C13.2516 18.3546 13.0723 18.255 12.9014 18.1408C12.2802 17.7257 11.796 17.1358 11.5101 16.4455C11.2242 15.7553 11.1494 14.9958 11.2952 14.2631C11.4409 13.5303 11.8007 12.8573 12.329 12.329C12.8573 11.8007 13.5303 11.4409 14.2631 11.2952C14.9958 11.1494 15.7553 11.2242 16.4455 11.5101C17.1358 11.796 17.7257 12.2802 18.1408 12.9014C18.255 13.0723 18.3546 13.2516 18.4389 13.4371C18.8071 14.2473 19.4988 15 20.3887 15Z" fill="black"/>
</svg>
