<svg width="30" height="30" viewBox="0 0 30 30" fill="none" xmlns="http://www.w3.org/2000/svg">
<path fill-rule="evenodd" clip-rule="evenodd" d="M18.6679 9.03676C18.4486 9.01247 18.2258 9 18 9C14.6863 9 12 11.6863 12 15C12 18.3137 14.6863 21 18 21C18.2258 21 18.4486 20.9875 18.6679 20.9632C17.6013 21.6207 16.3449 22 15 22C11.134 22 8 18.866 8 15C8 11.134 11.134 8 15 8C16.3449 8 17.6013 8.3793 18.6679 9.03676Z" fill="black"/>
<path fill-rule="evenodd" clip-rule="evenodd" d="M18.6679 9.03676C18.4486 9.01247 18.2258 9 18 9C14.6863 9 12 11.6863 12 15C12 18.3137 14.6863 21 18 21C18.2258 21 18.4486 20.9875 18.6679 20.9632C17.6013 21.6207 16.3449 22 15 22C11.134 22 8 18.866 8 15C8 11.134 11.134 8 15 8C16.3449 8 17.6013 8.3793 18.6679 9.03676Z" fill="black"/>
<path fill-rule="evenodd" clip-rule="evenodd" d="M18.6679 9.03676C18.4486 9.01247 18.2258 9 18 9C14.6863 9 12 11.6863 12 15C12 18.3137 14.6863 21 18 21C18.2258 21 18.4486 20.9875 18.6679 20.9632C17.6013 21.6207 16.3449 22 15 22C11.134 22 8 18.866 8 15C8 11.134 11.134 8 15 8C16.3449 8 17.6013 8.3793 18.6679 9.03676Z" fill="black"/>
</svg>
