<svg width="40" height="28" viewBox="0 0 40 28" fill="none" xmlns="http://www.w3.org/2000/svg">
<path d="M12 23L14 17H23L12 23Z" fill="black"/>
<path fill-rule="evenodd" clip-rule="evenodd" d="M11 9C11 7.34315 12.3431 6 14 6H26C27.6569 6 29 7.34315 29 9V15C29 16.6569 27.6569 18 26 18H14C12.3431 18 11 16.6569 11 15V9ZM19 9C19 8.44772 19.4477 8 20 8C20.5523 8 21 8.44772 21 9V11H23C23.5523 11 24 11.4477 24 12C24 12.5523 23.5523 13 23 13H21V15C21 15.5523 20.5523 16 20 16C19.4477 16 19 15.5523 19 15V13H17C16.4477 13 16 12.5523 16 12C16 11.4477 16.4477 11 17 11H19V9Z" fill="black"/>
</svg>
