<?xml version="1.0" encoding="UTF-8" standalone="no"?>
<!DOCTYPE svg PUBLIC "-//W3C//DTD SVG 1.1//EN" "http://www.w3.org/Graphics/SVG/1.1/DTD/svg11.dtd">
<svg width="100%" height="100%" viewBox="0 0 40 28" version="1.1" xmlns="http://www.w3.org/2000/svg" xmlns:xlink="http://www.w3.org/1999/xlink" xml:space="preserve" xmlns:serif="http://www.serif.com/" style="fill-rule:evenodd;clip-rule:evenodd;stroke-linejoin:round;stroke-miterlimit:2;">
    <g id="comment">
        <path id="comment1" serif:id="comment" d="M29,13.2C29,17.174 24.967,20.4 20,20.4C19.572,20.4 19.144,20.376 18.72,20.327L13,24L13.457,18.144C11.879,16.807 11,15.038 11,13.2C11,9.226 15.033,6 20,6C24.967,6 29,9.226 29,13.2ZM15.791,17L17.055,17L18.043,14.276L21.804,14.276L22.853,17L24.209,17L20.528,8.005L19.245,8.005L15.791,17ZM18.386,13.306L19.374,10.668C19.583,10.1 19.744,9.527 19.859,8.95C19.998,9.437 20.211,10.059 20.497,10.815L21.436,13.306L18.386,13.306Z"/>
    </g>
</svg>
