<?xml version="1.0" encoding="UTF-8" standalone="no"?>
<!DOCTYPE svg PUBLIC "-//W3C//DTD SVG 1.1//EN" "http://www.w3.org/Graphics/SVG/1.1/DTD/svg11.dtd">
<svg width="100%" height="100%" viewBox="0 0 40 28" version="1.1" xmlns="http://www.w3.org/2000/svg" xmlns:xlink="http://www.w3.org/1999/xlink" xml:space="preserve" xmlns:serif="http://www.serif.com/" style="fill-rule:evenodd;clip-rule:evenodd;stroke-linejoin:round;stroke-miterlimit:2;">
    <g id="plus">
        <g transform="matrix(0.666667,0,0,0.875,7,0.875)">
            <path d="M21,8.143C21,7.512 20.328,7 19.5,7C18.672,7 18,7.512 18,8.143L18,21.857C18,22.488 18.672,23 19.5,23C20.328,23 21,22.488 21,21.857L21,8.143Z"/>
        </g>
        <g transform="matrix(0.875,0,0,1,2.5,-1)">
            <path d="M28,15C28,14.448 27.488,14 26.857,14L13.143,14C12.512,14 12,14.448 12,15C12,15.552 12.512,16 13.143,16L26.857,16C27.488,16 28,15.552 28,15Z"/>
        </g>
    </g>
</svg>
