<svg width="40" height="28" viewBox="0 0 40 28" fill="none" xmlns="http://www.w3.org/2000/svg">
<path fill-rule="evenodd" clip-rule="evenodd" d="M18.6697 6.90279C19.1481 5.69907 20.8519 5.69907 21.3303 6.90279L21.5742 7.51664C21.8722 8.26635 22.7305 8.62187 23.4713 8.30243L24.0779 8.04088C25.2673 7.52799 26.472 8.73272 25.9591 9.92215L25.6976 10.5287C25.3781 11.2695 25.7336 12.1278 26.4834 12.4258L27.0972 12.6697C28.3009 13.1481 28.3009 14.8519 27.0972 15.3303L26.4834 15.5742C25.7336 15.8722 25.3781 16.7305 25.6976 17.4713L25.9591 18.0779C26.472 19.2673 25.2673 20.472 24.0779 19.9591L23.4713 19.6976C22.7305 19.3781 21.8722 19.7336 21.5742 20.4834L21.3303 21.0972C20.8519 22.3009 19.1481 22.3009 18.6697 21.0972L18.4258 20.4834C18.1278 19.7336 17.2695 19.3781 16.5287 19.6976L15.9221 19.9591C14.7327 20.472 13.528 19.2673 14.0409 18.0779L14.3024 17.4713C14.6219 16.7305 14.2664 15.8722 13.5166 15.5742L12.9028 15.3303C11.6991 14.8519 11.6991 13.1481 12.9028 12.6697L13.5166 12.4258C14.2664 12.1278 14.6219 11.2695 14.3024 10.5287L14.0409 9.92215C13.528 8.73272 14.7327 7.52799 15.9221 8.04088L16.5287 8.30243C17.2695 8.62187 18.1278 8.26635 18.4258 7.51665L18.6697 6.90279ZM20 18C22.2091 18 24 16.2091 24 14C24 11.7909 22.2091 10 20 10C17.7909 10 16 11.7909 16 14C16 16.2091 17.7909 18 20 18Z" fill="black"/>
</svg>
