<svg width="30" height="22" viewBox="0 0 30 22" fill="none" xmlns="http://www.w3.org/2000/svg">
<path d="M10.5 4.875C10.5 4.72852 10.6591 4.5 11 4.5H12.7929L12.8028 4.50992L12.82 4.52708L12.8371 4.54418L12.8541 4.56125L12.8712 4.57827L12.8881 4.59524L12.9051 4.61218L12.922 4.62907L12.9388 4.64591L12.9556 4.66272L12.9724 4.67948L12.9891 4.6962L13.0058 4.71288L13.0224 4.72951L13.039 4.74611L13.0556 4.76266L13.0721 4.77917L13.0885 4.79564L13.105 4.81206L13.1213 4.82845L13.1377 4.8448L13.154 4.8611L13.1703 4.87737L13.1865 4.89359L13.2027 4.90978L13.2188 4.92592L13.2349 4.94203L13.251 4.95809L13.267 4.97412L13.283 4.99011L13.2989 5.00606L13.3149 5.02196L13.3307 5.03784L13.3466 5.05367L13.3624 5.06946L13.3781 5.08522L13.3938 5.10094L13.4095 5.11662L13.4252 5.13226L13.4408 5.14786L13.4563 5.16343L13.4719 5.17896L13.4874 5.19446L13.5028 5.20992L13.5182 5.22534L13.5336 5.24072L13.549 5.25607L13.5643 5.27138L13.5796 5.28666L13.5948 5.3019L13.61 5.31711L13.6252 5.33228L13.6403 5.34742L13.6554 5.36252L13.6705 5.37758L13.6855 5.39262L13.7005 5.40761L13.7155 5.42258L13.7304 5.43751L13.7453 5.4524L13.7602 5.46726L13.775 5.48209L13.7898 5.49689L13.8045 5.51165L13.8193 5.52638L13.834 5.54108L13.8486 5.55574L13.8633 5.57037L13.8779 5.58497L13.8924 5.59954L13.907 5.61407L13.9215 5.62858L13.9359 5.64305L13.9504 5.65749L13.9648 5.6719L13.9792 5.68628L13.9935 5.70063L14.0078 5.71495L14.0221 5.72923L14.0364 5.74349L14.0506 5.75772L14.0648 5.77192L14.079 5.78608L14.0931 5.80022L14.1072 5.81433L14.1213 5.82841L14.1354 5.84246L14.1494 5.85648L14.1634 5.87048L14.1773 5.88444L14.1913 5.89838L14.2052 5.91229L14.2191 5.92617L14.2329 5.94002L14.2467 5.95385L14.2605 5.96764L14.2743 5.98141L14.2881 5.99516L14.3018 6.00888L14.3155 6.02257L14.3291 6.03623L14.3428 6.04987L14.3564 6.06348L14.37 6.07706L14.3835 6.09062L14.3971 6.10416L14.4106 6.11767L14.424 6.13115L14.4375 6.14461L14.4509 6.15804L14.4643 6.17145L14.4777 6.18484L14.4911 6.1982L14.5044 6.21153L14.5177 6.22485L14.531 6.23813L14.5443 6.2514L14.5575 6.26464L14.5708 6.27786L14.5839 6.29105L14.5971 6.30423L14.6103 6.31737L14.6234 6.3305L14.6365 6.34361L14.6496 6.35669L14.6626 6.36975L14.6757 6.38279L14.6887 6.3958L14.7017 6.4088L14.7147 6.42177L14.7276 6.43473L14.7406 6.44766L14.7535 6.46057L14.7664 6.47346L14.7792 6.48633L14.7921 6.49918L14.8049 6.51201L14.8177 6.52482L14.8305 6.53761L14.8433 6.55039L14.856 6.56314L14.8688 6.57587L14.8815 6.58858L14.8942 6.60128L14.9068 6.61396L14.9195 6.62661L14.9321 6.63925L14.9448 6.65188L14.9574 6.66448L14.97 6.67707L14.9825 6.68963L14.9951 6.70219L15.0076 6.71472L15.0201 6.72724L15.0326 6.73974L15.0451 6.75222L15.0576 6.76469L15.07 6.77714L15.0825 6.78957L15.0949 6.80199L15.1073 6.8144L15.1197 6.82678L15.1321 6.83916L15.1444 6.85151L15.1567 6.86386L15.1691 6.87618L15.1814 6.8885L15.1937 6.90079L15.206 6.91308L15.2182 6.92535L15.2305 6.9376L15.2427 6.94985L15.255 6.96207L15.2672 6.97429L15.2794 6.98649L15.2916 6.99868L15.3037 7.01086L15.3159 7.02302L15.3281 7.03517L15.3402 7.04731L15.3523 7.05943L15.3644 7.07155L15.3765 7.08365L15.3886 7.09574L15.4007 7.10782L15.4128 7.11989L15.4248 7.13195L15.4369 7.14399L15.4489 7.15603L15.4609 7.16805L15.473 7.18007L15.485 7.19207L15.497 7.20406L15.5089 7.21605L15.5209 7.22802L15.5329 7.23999L15.5448 7.25194L15.5568 7.26389L15.5687 7.27583L15.5807 7.28776L15.5926 7.29968L15.6045 7.31159L15.6164 7.32349L15.6283 7.33539L15.6402 7.34728L15.6521 7.35916L15.6639 7.37103L15.6758 7.3829L15.6876 7.39475L15.6995 7.40661L15.7113 7.41845L15.7232 7.43029L15.735 7.44212L15.7468 7.45394L15.7587 7.46576L15.7705 7.47758L15.7823 7.48938L15.7941 7.50119L15.8059 7.51298L15.8177 7.52477L15.8295 7.53656L15.8412 7.54834L15.853 7.56012L15.8648 7.57189L15.8766 7.58366L15.8883 7.59542L15.9001 7.60718L15.9118 7.61894L15.9236 7.63069L15.9353 7.64244L15.9471 7.65419L15.9588 7.66593L15.9706 7.67767L15.9823 7.68941L15.994 7.70114L16.0058 7.71288L16.0175 7.72461L16.0292 7.73634L16.041 7.74806L16.0527 7.75979L16.0644 7.77151L16.0761 7.78323L16.0878 7.79496L16.0996 7.80668L16.1113 7.8184L16.123 7.83012L16.1347 7.84183L16.1464 7.85355L16.1582 7.86527L16.1699 7.87699L16.1816 7.88871L16.1933 7.90043L16.205 7.91215L16.2168 7.92387L16.2285 7.93559L16.2402 7.94732L16.2519 7.95904L16.2637 7.97077L16.2754 7.9825L16.2871 7.99423L16.2989 8.00596L16.3106 8.0177L16.3223 8.02944L16.3341 8.04118L16.3458 8.05292L16.3576 8.06466L16.3693 8.07641L16.3811 8.08817L16.3928 8.09992L16.4046 8.11168L16.4163 8.12345L16.4281 8.13522L16.4399 8.14699L16.4517 8.15876L16.4634 8.17055L16.4752 8.18233L16.487 8.19412L16.4988 8.20592L16.5106 8.21772L16.5224 8.22953L16.5342 8.24134L16.5461 8.25316L16.5579 8.26499L16.5697 8.27682L16.5816 8.28866L16.5934 8.3005L16.6052 8.31235L16.6171 8.32421L16.629 8.33608L16.6408 8.34795L16.6527 8.35983L16.6646 8.37172L16.6765 8.38361L16.6884 8.39552L16.7003 8.40743L16.7122 8.41935L16.7242 8.43128L16.7361 8.44322L16.7481 8.45516L16.76 8.46712L16.772 8.47908L16.784 8.49106L16.7959 8.50304L16.8079 8.51504L16.8199 8.52704L16.8319 8.53906L16.844 8.55108L16.856 8.56312L16.8681 8.57516L16.8801 8.58722L16.8922 8.59929L16.9043 8.61137L16.9163 8.62346L16.9285 8.63556L16.9406 8.64767L16.9527 8.6598L16.9648 8.67194L16.977 8.68409L16.9891 8.69625L17.0013 8.70843L17.0135 8.72062L17.0257 8.73282L17.0379 8.74503L17.0502 8.75726L17.0624 8.7695L17.0747 8.78176L17.0869 8.79403L17.0992 8.80631L17.1115 8.81861L17.1238 8.83092L17.1361 8.84325L17.1485 8.85559L17.1608 8.86795L17.1732 8.88032L17.1856 8.89271L17.198 8.90511L17.2104 8.91753L17.2229 8.92997L17.2353 8.94242L17.2478 8.95489L17.2603 8.96737L17.2728 8.97987L17.2853 8.99239L17.2978 9.00492L17.3104 9.01747L17.3229 9.03004L17.3355 9.04263L17.3481 9.05523L17.3607 9.06785L17.3734 9.08049L17.386 9.09315L17.3987 9.10583L17.4114 9.11852L17.4241 9.13124L17.4369 9.14397L17.4496 9.15672L17.4624 9.16949L17.4752 9.18228L17.488 9.19509L17.5008 9.20792L17.5137 9.22077L17.5265 9.23364L17.5394 9.24654L17.5523 9.25945L17.5653 9.27238L17.5782 9.28533L17.5912 9.29831L17.6042 9.3113L17.6172 9.32432L17.6303 9.33736L17.6433 9.35042L17.6564 9.3635L17.6695 9.37661L17.6826 9.38973L17.6958 9.40288L17.7089 9.41605L17.7221 9.42925L17.7354 9.44247L17.7486 9.45571L17.7619 9.46897L17.7752 9.48226L17.7885 9.49557L17.8018 9.50891L17.8152 9.52227L17.8285 9.53565L17.842 9.54906L17.8554 9.5625L17.8688 9.57596L17.8823 9.58944L17.8958 9.60295L17.9094 9.61648L17.9229 9.63004L17.9365 9.64363L17.9501 9.65724L17.9638 9.67088L17.9774 9.68454L17.9911 9.69823L18.0048 9.71195L18.0186 9.72569L18.0324 9.73946L18.0462 9.75326L18.06 9.76709L18.0738 9.78094L18.0877 9.79482L18.1016 9.80873L18.1156 9.82267L18.1295 9.83663L18.1435 9.85062L18.1575 9.86465L18.1716 9.8787L18.1857 9.89278L18.1998 9.90688L18.2139 9.92102L18.2281 9.93519L18.2423 9.94939L18.2565 9.96361L18.2708 9.97787L18.2851 9.99216L18.2994 10.0065L18.3137 10.0208L18.3281 10.0352L18.3425 10.0496L18.3569 10.0641L18.3714 10.0785L18.3859 10.093L18.4005 10.1076L18.415 10.1221L18.4296 10.1367L18.4443 10.1514L18.4589 10.166L18.4736 10.1807L18.4883 10.1955L18.5031 10.2102L18.5179 10.225L18.5327 10.2398L18.5476 10.2547L18.5625 10.2696L18.5774 10.2845L18.5924 10.2995L18.6074 10.3145L18.6224 10.3295L18.6375 10.3446L18.6526 10.3597L18.6677 10.3748L18.6829 10.39L18.6981 10.4052L18.7133 10.4204L18.7286 10.4357L18.7439 10.451L18.7593 10.4664L18.7747 10.4818L18.7901 10.4972L18.8055 10.5126L18.821 10.5281L18.8366 10.5437L18.8521 10.5592L18.8677 10.5748L18.8834 10.5905L18.8991 10.6062L18.9148 10.6219L18.9305 10.6376L18.9463 10.6534L18.9622 10.6693L18.978 10.6851L18.9939 10.7011L19.0099 10.717L19.0259 10.733L19.0419 10.749L19.058 10.7651L19.0741 10.7812L19.0902 10.7973L19.1064 10.8135L19.1226 10.8297L19.1389 10.846L19.1552 10.8623L19.1715 10.8787L19.1879 10.895L19.2044 10.9115L19.2208 10.9279L19.2373 10.9444L19.2539 10.961L19.2705 10.9776L19.2871 10.9942L19.3038 11.0109L19.3205 11.0276L19.3373 11.0444L19.3541 11.0612L19.3709 11.078L19.3878 11.0949L19.4048 11.1119L19.4217 11.1288L19.4388 11.1459L19.4558 11.1629L19.4729 11.18L19.4901 11.1972L19.5 11.2071V17.125C19.5 17.2715 19.3409 17.5 19 17.5H11C10.6591 17.5 10.5 17.2715 10.5 17.125V4.875Z" stroke="black"/>
<path d="M13.5 9V5.20711L18.7929 10.5H15C14.1716 10.5 13.5 9.82843 13.5 9Z" fill="black" stroke="black"/>
</svg>
