<svg width="30" height="22" viewBox="0 0 30 22" fill="none" xmlns="http://www.w3.org/2000/svg">
<path fill-rule="evenodd" clip-rule="evenodd" d="M18.6679 5.03676C18.4486 5.01247 18.2258 5 18 5C14.6863 5 12 7.68629 12 11C12 14.3137 14.6863 17 18 17C18.2258 17 18.4486 16.9875 18.6679 16.9632C17.6013 17.6207 16.3449 18 15 18C11.134 18 8 14.866 8 11C8 7.13401 11.134 4 15 4C16.3449 4 17.6013 4.3793 18.6679 5.03676Z" fill="black"/>
<path fill-rule="evenodd" clip-rule="evenodd" d="M18.6679 5.03676C18.4486 5.01247 18.2258 5 18 5C14.6863 5 12 7.68629 12 11C12 14.3137 14.6863 17 18 17C18.2258 17 18.4486 16.9875 18.6679 16.9632C17.6013 17.6207 16.3449 18 15 18C11.134 18 8 14.866 8 11C8 7.13401 11.134 4 15 4C16.3449 4 17.6013 4.3793 18.6679 5.03676Z" fill="black"/>
<path fill-rule="evenodd" clip-rule="evenodd" d="M18.6679 5.03676C18.4486 5.01247 18.2258 5 18 5C14.6863 5 12 7.68629 12 11C12 14.3137 14.6863 17 18 17C18.2258 17 18.4486 16.9875 18.6679 16.9632C17.6013 17.6207 16.3449 18 15 18C11.134 18 8 14.866 8 11C8 7.13401 11.134 4 15 4C16.3449 4 17.6013 4.3793 18.6679 5.03676Z" fill="black"/>
</svg>
