<svg width="30" height="22" viewBox="0 0 30 22" fill="none" xmlns="http://www.w3.org/2000/svg">
<circle cx="15" cy="11" r="4" fill="black"/>
<rect x="14" y="3" width="2" height="3" rx="1" fill="black"/>
<rect x="14" y="16" width="2" height="3" rx="1" fill="black"/>
<rect x="7" y="12" width="2" height="3" rx="1" transform="rotate(-90 7 12)" fill="black"/>
<rect x="20" y="12" width="2" height="3" rx="1" transform="rotate(-90 20 12)" fill="black"/>
<rect x="8.63605" y="6.05025" width="2" height="3" rx="1" transform="rotate(-45 8.63605 6.05025)" fill="black"/>
<rect x="17.8284" y="15.2426" width="2" height="3" rx="1" transform="rotate(-45 17.8284 15.2426)" fill="black"/>
<rect x="10.0502" y="17.364" width="2" height="3" rx="1" transform="rotate(-135 10.0502 17.364)" fill="black"/>
<rect x="19.2426" y="8.17157" width="2" height="3" rx="1" transform="rotate(-135 19.2426 8.17157)" fill="black"/>
<circle cx="15" cy="11" r="4" fill="black"/>
<rect x="14" y="3" width="2" height="3" rx="1" fill="black"/>
<rect x="14" y="16" width="2" height="3" rx="1" fill="black"/>
<rect x="7" y="12" width="2" height="3" rx="1" transform="rotate(-90 7 12)" fill="black"/>
<rect x="20" y="12" width="2" height="3" rx="1" transform="rotate(-90 20 12)" fill="black"/>
<rect x="8.63605" y="6.05025" width="2" height="3" rx="1" transform="rotate(-45 8.63605 6.05025)" fill="black"/>
<rect x="17.8284" y="15.2426" width="2" height="3" rx="1" transform="rotate(-45 17.8284 15.2426)" fill="black"/>
<rect x="10.0502" y="17.364" width="2" height="3" rx="1" transform="rotate(-135 10.0502 17.364)" fill="black"/>
<rect x="19.2426" y="8.17157" width="2" height="3" rx="1" transform="rotate(-135 19.2426 8.17157)" fill="black"/>
</svg>
