<svg width="30" height="22" viewBox="0 0 30 22" fill="none" xmlns="http://www.w3.org/2000/svg">
<path fill-rule="evenodd" clip-rule="evenodd" d="M8 5H18C18.5523 5 19 5.44772 19 6V8H20V6C20 4.89543 19.1046 4 18 4H8C6.89543 4 6 4.89543 6 6V12C6 13.1046 6.89543 14 8 14H10V13H8C7.44772 13 7 12.5523 7 12V6C7 5.44772 7.44772 5 8 5Z" fill="black"/>
<path fill-rule="evenodd" clip-rule="evenodd" d="M10 10C10 9.85225 10.016 9.70825 10.0464 9.56963C10.2433 8.67191 11.0432 8 12 8H22C22.9568 8 23.7567 8.67191 23.9536 9.56963C23.984 9.70825 24 9.85225 24 10V16C24 17.1046 23.1046 18 22 18H12C10.8954 18 10 17.1046 10 16V10ZM11 16V11H12H22H23V16C23 16.5523 22.5523 17 22 17H12C11.4477 17 11 16.5523 11 16ZM11.5 10C11.7761 10 12 9.77614 12 9.5C12 9.22386 11.7761 9 11.5 9C11.2239 9 11 9.22386 11 9.5C11 9.77614 11.2239 10 11.5 10ZM14 9.5C14 9.77614 13.7761 10 13.5 10C13.2239 10 13 9.77614 13 9.5C13 9.22386 13.2239 9 13.5 9C13.7761 9 14 9.22386 14 9.5ZM15.5 10C15.7761 10 16 9.77614 16 9.5C16 9.22386 15.7761 9 15.5 9C15.2239 9 15 9.22386 15 9.5C15 9.77614 15.2239 10 15.5 10Z" fill="black"/>
</svg>
