<svg width="30" height="22" viewBox="0 0 30 22" fill="none" xmlns="http://www.w3.org/2000/svg">
<path fill-rule="evenodd" clip-rule="evenodd" d="M8 5H18C18.5523 5 19 5.44772 19 6V8H20V6C20 4.89543 19.1046 4 18 4H8C6.89543 4 6 4.89543 6 6V12C6 13.1046 6.89543 14 8 14H10V13H8C7.44772 13 7 12.5523 7 12V6C7 5.44772 7.44772 5 8 5Z" fill="black"/>
<path d="M10 10C10 8.89543 10.8954 8 12 8H22C23.1046 8 24 8.89543 24 10V16C24 17.1046 23.1046 18 22 18H12C10.8954 18 10 17.1046 10 16V10Z" fill="black"/>
</svg>
