<svg width="22" height="22" viewBox="0 0 22 22" fill="none" xmlns="http://www.w3.org/2000/svg">
<path d="M6 4H16C17.1046 4 18 4.89543 18 6V16H14.2325C14.0056 16 13.8582 15.4825 14.008 15.312C14.2797 15.0028 14.5 14.5748 14.5 14C14.5 12.5 13.5 11.5 12 11.5C10.5 11.5 9.5 12.5 9.5 14C9.5 14.5748 9.72027 15.0028 9.992 15.312C10.1418 15.4825 9.99443 16 9.76754 16H6V12.2325C6 12.0056 5.48247 11.8582 5.31203 12.008C5.00278 12.2797 4.57481 12.5 4 12.5C2.5 12.5 1.5 11 1.5 10C1.5 9 2.5 7.5 4 7.5C4.57481 7.5 5.00278 7.72027 5.31203 7.992C5.48247 8.14175 6 7.99443 6 7.76754V4Z" fill="black"/>
</svg>
