<svg width="22" height="22" viewBox="0 0 22 22" fill="none" xmlns="http://www.w3.org/2000/svg">
<g clip-path="url(#clip0_449_429)">
<path d="M4.28357 15.1485L4.29438 15.8984L4.28357 15.1485L3.46147 15.1603C2.52799 15.1738 2.05807 14.0393 2.72765 13.3887L3.31735 12.8158C4.3407 11.8216 4.3407 10.1785 3.31735 9.18419L2.72765 8.61125C2.05807 7.9607 2.52799 6.82621 3.46147 6.83967L4.28357 6.85152C5.71024 6.87209 6.87209 5.71024 6.85152 4.28357L6.1016 4.29438L6.85152 4.28357L6.83967 3.46147C6.82621 2.52799 7.9607 2.05807 8.61125 2.72765L9.18419 3.31735C10.1784 4.3407 11.8215 4.3407 12.8158 3.31735L13.3887 2.72765C14.0393 2.05807 15.1738 2.52799 15.1603 3.46147L15.1485 4.28357C15.1279 5.71024 16.2898 6.87209 17.7164 6.85152L18.5385 6.83967C19.472 6.82621 19.9419 7.9607 19.2723 8.61125L18.6827 9.18419C17.6593 10.1784 17.6593 11.8216 18.6827 12.8158L19.2723 13.3887C19.9419 14.0393 19.472 15.1738 18.5385 15.1603L17.7164 15.1485C16.2898 15.1279 15.1279 16.2898 15.1485 17.7164L15.1603 18.5385C15.1738 19.472 14.0393 19.9419 13.3888 19.2723L12.8158 18.6827C11.8216 17.6593 10.1785 17.6593 9.18419 18.6827L8.61125 19.2723C7.9607 19.9419 6.82621 19.472 6.83967 18.5385L6.85152 17.7164C6.87209 16.2898 5.71024 15.1279 4.28357 15.1485Z" stroke="black" stroke-width="1.5"/>
<circle cx="11" cy="11" r="3.25" stroke="black" stroke-width="1.5"/>
</g>
<defs>
<clipPath id="clip0_449_429">
<rect width="22" height="22" fill="white"/>
</clipPath>
</defs>
</svg>
