<svg width="22" height="22" viewBox="0 0 22 22" fill="none" xmlns="http://www.w3.org/2000/svg">
<g clip-path="url(#clip0_395_418)">
<path d="M3.20727 12.2624L2.93028 12.9594L3.20727 12.2624L2.44321 11.9588C1.57564 11.614 1.57564 10.386 2.44321 10.0412L3.20727 9.73757C4.53322 9.21061 5.162 7.69259 4.59704 6.38238L4.27148 5.62739C3.90182 4.77012 4.77012 3.90182 5.62739 4.27148L6.38238 4.59704C7.69258 5.162 9.21061 4.53322 9.73757 3.20727L9.0406 2.93028L9.73757 3.20727L10.0412 2.44321C10.386 1.57564 11.614 1.57564 11.9588 2.44321L12.2624 3.20727C12.7894 4.53322 14.3074 5.162 15.6176 4.59704L16.3726 4.27148C17.2299 3.90182 18.0982 4.77013 17.7285 5.62739L17.403 6.38238C16.838 7.69258 17.4668 9.21061 18.7927 9.73757L19.5568 10.0412C20.4244 10.386 20.4244 11.614 19.5568 11.9588L18.7927 12.2624C17.4668 12.7894 16.838 14.3074 17.403 15.6176L17.7285 16.3726C18.0982 17.2299 17.2299 18.0982 16.3726 17.7285L15.6176 17.403C14.3074 16.838 12.7894 17.4668 12.2624 18.7927L11.9588 19.5568C11.614 20.4244 10.386 20.4244 10.0412 19.5568L9.73757 18.7927C9.21061 17.4668 7.69259 16.838 6.38238 17.403L5.62739 17.7285C4.77012 18.0982 3.90182 17.2299 4.27148 16.3726L4.59704 15.6176C5.162 14.3074 4.53322 12.7894 3.20727 12.2624Z" stroke="black" stroke-width="1.5"/>
<circle cx="11" cy="11" r="3.25" stroke="black" stroke-width="1.5"/>
</g>
<defs>
<clipPath id="clip0_395_418">
<rect width="22" height="22" fill="white"/>
</clipPath>
</defs>
</svg>
