<svg width="22" height="22" viewBox="0 0 22 22" fill="none" xmlns="http://www.w3.org/2000/svg">
<g clip-path="url(#clip0_358_10)">
<path d="M4 11C4 12.3845 4.41054 13.7378 5.17971 14.889C5.94888 16.0401 7.04213 16.9373 8.32122 17.4672C9.6003 17.997 11.0078 18.1356 12.3656 17.8655C13.7235 17.5954 14.9708 16.9287 15.9497 15.9497C16.9287 14.9708 17.5954 13.7235 17.8655 12.3656C18.1356 11.0078 17.997 9.6003 17.4672 8.32122C16.9373 7.04213 16.0401 5.94888 14.889 5.17971C13.7378 4.41054 12.3845 4 11 4V5.25588C12.1361 5.25588 13.2466 5.59277 14.1913 6.22394C15.1359 6.85511 15.8721 7.75222 16.3069 8.80182C16.7416 9.85142 16.8554 11.0064 16.6337 12.1206C16.4121 13.2349 15.865 14.2584 15.0617 15.0617C14.2584 15.865 13.2349 16.4121 12.1206 16.6337C11.0064 16.8554 9.85142 16.7416 8.80182 16.3069C7.75222 15.8721 6.85511 15.1359 6.22394 14.1913C5.59277 13.2466 5.25588 12.1361 5.25588 11H4Z" fill="black"/>
<path d="M4 5L11.5 0.669872L11.5 9.33013L4 5Z" fill="black"/>
</g>
<defs>
<clipPath id="clip0_358_10">
<rect width="22" height="22" fill="white"/>
</clipPath>
</defs>
</svg>
