<svg width="40" height="36" viewBox="0 0 40 36" fill="none" xmlns="http://www.w3.org/2000/svg">
<path d="M11.5 13C11.5 11.6193 12.6193 10.5 14 10.5H26C27.3807 10.5 28.5 11.6193 28.5 13V19C28.5 20.3807 27.3807 21.5 26 21.5H20.1598C19.2891 21.5 18.4497 21.8245 17.8055 22.4102L13.1971 26.5996C13.1933 26.603 13.1893 26.6062 13.185 26.6091L13.0382 26.7069C13.0289 26.7132 13.023 26.715 13.0207 26.7157C13.0183 26.7163 13.0164 26.7165 13.0144 26.7163C13.0096 26.716 12.9998 26.7137 12.9889 26.7053C12.9779 26.697 12.9731 26.6882 12.9715 26.6836C12.9709 26.6817 12.9705 26.6798 12.9705 26.6773C12.9705 26.675 12.9708 26.6688 12.9743 26.6581L13.923 23.8121C14.3022 22.6746 13.4556 21.5 12.2566 21.5C11.8387 21.5 11.5 21.1613 11.5 20.7434V13Z" stroke="black"/>
<rect x="19" y="12" width="2" height="8" rx="1" fill="black"/>
<rect x="24" y="15" width="2" height="8" rx="1" transform="rotate(90 24 15)" fill="black"/>
</svg>
