<svg width="40" height="36" viewBox="0 0 40 36" fill="none" xmlns="http://www.w3.org/2000/svg">
<path d="M15.2 9.5H18.0023L18.004 9.50163L18.0246 9.52093L18.0451 9.54017L18.0656 9.55935L18.086 9.57846L18.1063 9.59751L18.1265 9.6165L18.1467 9.63543L18.1669 9.6543L18.1869 9.67311L18.2069 9.69185L18.2269 9.71054L18.2467 9.72917L18.2665 9.74774L18.2863 9.76625L18.306 9.7847L18.3256 9.80309L18.3451 9.82142L18.3646 9.83969L18.384 9.85791L18.4034 9.87607L18.4227 9.89417L18.442 9.91221L18.4612 9.93019L18.4803 9.94812L18.4993 9.966L18.5183 9.98381L18.5373 10.0016L18.5562 10.0193L18.575 10.0369L18.5938 10.0545L18.6125 10.0721L18.6311 10.0895L18.6497 10.107L18.6682 10.1243L18.6867 10.1417L18.7051 10.1589L18.7235 10.1761L18.7418 10.1933L18.76 10.2104L18.7782 10.2275L18.7964 10.2445L18.8145 10.2614L18.8325 10.2783L18.8504 10.2952L18.8684 10.3119L18.8862 10.3287L18.904 10.3454L18.9218 10.362L18.9395 10.3786L18.9571 10.3952L18.9747 10.4116L18.9922 10.4281L19.0097 10.4445L19.0271 10.4608L19.0445 10.4771L19.0618 10.4933L19.0791 10.5095L19.0963 10.5257L19.1135 10.5418L19.1306 10.5578L19.1477 10.5738L19.1647 10.5898L19.1817 10.6057L19.1986 10.6216L19.2155 10.6374L19.2323 10.6532L19.2491 10.6689L19.2658 10.6846L19.2825 10.7002L19.2991 10.7158L19.3157 10.7313L19.3322 10.7468L19.3487 10.7623L19.3651 10.7777L19.3815 10.793L19.3979 10.8084L19.4142 10.8236L19.4304 10.8389L19.4466 10.8541L19.4628 10.8692L19.4789 10.8843L19.4949 10.8994L19.511 10.9144L19.5269 10.9294L19.5429 10.9443L19.5588 10.9592L19.5746 10.9741L19.5904 10.9889L19.6062 11.0037L19.6219 11.0184L19.6376 11.0331L19.6532 11.0477L19.6688 11.0624L19.6843 11.0769L19.6998 11.0915L19.7153 11.106L19.7307 11.1204L19.7461 11.1348L19.7615 11.1492L19.7768 11.1636L19.792 11.1779L19.8072 11.1922L19.8224 11.2064L19.8376 11.2206L19.8527 11.2347L19.8677 11.2489L19.8828 11.263L19.8978 11.277L19.9127 11.291L19.9276 11.305L19.9425 11.319L19.9573 11.3329L19.9721 11.3467L19.9869 11.3606L20.0016 11.3744L20.0163 11.3882L20.031 11.4019L20.0456 11.4156L20.0602 11.4293L20.0748 11.443L20.0893 11.4566L20.1038 11.4701L20.1182 11.4837L20.1326 11.4972L20.147 11.5107L20.1614 11.5241L20.1757 11.5376L20.19 11.551L20.2042 11.5643L20.2184 11.5777L20.2326 11.591L20.2468 11.6042L20.2609 11.6175L20.275 11.6307L20.2891 11.6439L20.3031 11.657L20.3171 11.6701L20.3311 11.6832L20.345 11.6963L20.3589 11.7094L20.3728 11.7224L20.3867 11.7354L20.4005 11.7483L20.4143 11.7613L20.4281 11.7742L20.4418 11.7871L20.4555 11.7999L20.4692 11.8127L20.4829 11.8255L20.4965 11.8383L20.5101 11.8511L20.5237 11.8638L20.5372 11.8765L20.5508 11.8892L20.5643 11.9019L20.5777 11.9145L20.5912 11.9271L20.6046 11.9397L20.618 11.9523L20.6314 11.9648L20.6448 11.9773L20.6581 11.9898L20.6714 12.0023L20.6847 12.0148L20.6979 12.0272L20.7112 12.0396L20.7244 12.052L20.7376 12.0644L20.7508 12.0767L20.7639 12.089L20.7771 12.1014L20.7902 12.1136L20.8032 12.1259L20.8163 12.1382L20.8294 12.1504L20.8424 12.1626L20.8554 12.1748L20.8684 12.187L20.8814 12.1991L20.8943 12.2113L20.9073 12.2234L20.9202 12.2355L20.9331 12.2476L20.9459 12.2597L20.9588 12.2718L20.9717 12.2838L20.9845 12.2958L20.9973 12.3078L21.0101 12.3198L21.0229 12.3318L21.0356 12.3438L21.0484 12.3557L21.0611 12.3677L21.0738 12.3796L21.0865 12.3915L21.0992 12.4034L21.1119 12.4153L21.1246 12.4271L21.1372 12.439L21.1498 12.4508L21.1625 12.4627L21.1751 12.4745L21.1877 12.4863L21.2002 12.4981L21.2128 12.5099L21.2254 12.5217L21.2379 12.5334L21.2505 12.5452L21.263 12.5569L21.2755 12.5686L21.288 12.5804L21.3005 12.5921L21.313 12.6038L21.3254 12.6155L21.3379 12.6272L21.3504 12.6388L21.3628 12.6505L21.3753 12.6622L21.3877 12.6738L21.4001 12.6855L21.4125 12.6971L21.4249 12.7087L21.4373 12.7204L21.4497 12.732L21.4621 12.7436L21.4745 12.7552L21.4869 12.7668L21.4992 12.7784L21.5116 12.79L21.5239 12.8016L21.5363 12.8131L21.5486 12.8247L21.561 12.8363L21.5733 12.8478L21.5856 12.8594L21.598 12.871L21.6103 12.8825L21.6226 12.8941L21.6349 12.9056L21.6473 12.9172L21.6596 12.9287L21.6719 12.9403L21.6842 12.9518L21.6965 12.9633L21.7088 12.9749L21.7211 12.9864L21.7334 12.9979L21.7457 13.0095L21.758 13.021L21.7703 13.0326L21.7826 13.0441L21.7949 13.0556L21.8073 13.0672L21.8196 13.0787L21.8319 13.0902L21.8442 13.1018L21.8565 13.1133L21.8688 13.1249L21.8811 13.1364L21.8934 13.148L21.9058 13.1595L21.9181 13.1711L21.9304 13.1826L21.9428 13.1942L21.9551 13.2058L21.9674 13.2173L21.9798 13.2289L21.9921 13.2405L22.0045 13.2521L22.0168 13.2637L22.0292 13.2752L22.0416 13.2868L22.054 13.2985L22.0663 13.3101L22.0787 13.3217L22.0911 13.3333L22.1035 13.3449L22.116 13.3566L22.1284 13.3682L22.1408 13.3799L22.1532 13.3915L22.1657 13.4032L22.1781 13.4149L22.1906 13.4266L22.2031 13.4383L22.2156 13.45L22.2281 13.4617L22.2406 13.4734L22.2531 13.4851L22.2656 13.4969L22.2781 13.5086L22.2907 13.5204L22.3032 13.5322L22.3158 13.5439L22.3284 13.5557L22.341 13.5675L22.3536 13.5794L22.3662 13.5912L22.3789 13.603L22.3915 13.6149L22.4042 13.6268L22.4168 13.6386L22.4295 13.6505L22.4422 13.6625L22.4549 13.6744L22.4677 13.6863L22.4804 13.6983L22.4932 13.7102L22.506 13.7222L22.5188 13.7342L22.5316 13.7462L22.5444 13.7582L22.5572 13.7703L22.5701 13.7823L22.583 13.7944L22.5959 13.8065L22.6088 13.8186L22.6217 13.8307L22.6347 13.8429L22.6477 13.855L22.6607 13.8672L22.6737 13.8794L22.6867 13.8916L22.6997 13.9039L22.7128 13.9161L22.7259 13.9284L22.739 13.9407L22.7521 13.953L22.7653 13.9653L22.7785 13.9777L22.7917 13.99L22.8049 14.0024L22.8181 14.0149L22.8314 14.0273L22.8447 14.0397L22.858 14.0522L22.8713 14.0647L22.8847 14.0772L22.898 14.0898L22.9114 14.1023L22.9249 14.1149L22.9383 14.1275L22.9518 14.1402L22.9653 14.1528L22.9788 14.1655L22.9924 14.1782L23.006 14.191L23.0196 14.2037L23.0332 14.2165L23.0469 14.2293L23.0605 14.2421L23.0743 14.255L23.088 14.2679L23.1018 14.2808L23.1156 14.2937L23.1294 14.3067L23.1432 14.3197L23.1571 14.3327L23.171 14.3457L23.185 14.3588L23.199 14.3719L23.213 14.385L23.227 14.3982L23.2411 14.4114L23.2552 14.4246L23.2693 14.4378L23.2834 14.4511L23.2976 14.4644L23.3118 14.4777L23.3261 14.4911L23.3404 14.5045L23.3547 14.5179L23.369 14.5313L23.3834 14.5448L23.3978 14.5583L23.4123 14.5719L23.4268 14.5855L23.4413 14.5991L23.4559 14.6127L23.4704 14.6264L23.4851 14.6401L23.4997 14.6539L23.5144 14.6676L23.5292 14.6814L23.5439 14.6953L23.5587 14.7092L23.5736 14.7231L23.5884 14.737L23.6034 14.751L23.6183 14.765L23.6333 14.7791L23.6483 14.7932L23.6634 14.8073L23.6785 14.8215L23.6936 14.8357L23.7088 14.8499L23.724 14.8642L23.7393 14.8785L23.7546 14.8928L23.7699 14.9072L23.7853 14.9216L23.8008 14.9361L23.8162 14.9506L23.8317 14.9651L23.8473 14.9797L23.8629 14.9943L23.8785 15.009L23.8942 15.0236L23.9099 15.0384L23.9256 15.0532L23.9414 15.068L23.9573 15.0828L23.9732 15.0977L23.9891 15.1127L24.0051 15.1276L24.0211 15.1427L24.0372 15.1577L24.0533 15.1728L24.0695 15.188L24.0857 15.2032L24.1019 15.2184L24.1182 15.2337L24.1345 15.249L24.1509 15.2644L24.1674 15.2798L24.1839 15.2952L24.2004 15.3107L24.217 15.3263L24.2336 15.3419L24.2503 15.3575L24.267 15.3732L24.2838 15.3889L24.3006 15.4047L24.3174 15.4205L24.3344 15.4363L24.3513 15.4522L24.3684 15.4682L24.3854 15.4842L24.4025 15.5002L24.4197 15.5163L24.4369 15.5325L24.4542 15.5487L24.4715 15.5649L24.4889 15.5812L24.5063 15.5976L24.5238 15.614L24.5414 15.6304L24.559 15.6469L24.5766 15.6634L24.5943 15.68L24.612 15.6967L24.6298 15.7133L24.6477 15.7301L24.6656 15.7469L24.6836 15.7637L24.7016 15.7806L24.7197 15.7976L24.7378 15.8146L24.756 15.8316L24.7743 15.8487L24.7926 15.8659L24.8109 15.8831L24.8293 15.9004L24.8478 15.9177L24.8664 15.9351L24.8849 15.9525L24.9036 15.97L24.9223 15.9875L24.9411 16.0051L24.9599 16.0228L24.9788 16.0405L24.9977 16.0582L25.0167 16.076L25.0358 16.0939L25.0549 16.1118L25.0741 16.1298L25.0933 16.1479L25.1126 16.166L25.132 16.1841L25.1514 16.2023L25.1709 16.2206L25.1905 16.239L25.2101 16.2573L25.2298 16.2758L25.2495 16.2943L25.2693 16.3129L25.2892 16.3315L25.3091 16.3502L25.3291 16.3689L25.3492 16.3877L25.3693 16.4066L25.3895 16.4255L25.4098 16.4445L25.4301 16.4636L25.4505 16.4827L25.4709 16.5019L25.4915 16.5211L25.5 16.5291V25.875C25.5 26.1903 25.2175 26.5 24.8 26.5H15.2C14.7825 26.5 14.5 26.1903 14.5 25.875V10.125C14.5 9.80973 14.7825 9.5 15.2 9.5Z" stroke="black"/>
<path d="M18.5 15V10.2071L24.7929 16.5H20C19.1716 16.5 18.5 15.8284 18.5 15Z" stroke="black"/>
<rect x="17" y="22" width="6" height="1" fill="black"/>
<rect x="17" y="19" width="6" height="1" fill="black"/>
</svg>
