<?xml version="1.0" encoding="UTF-8" standalone="no"?>
<!DOCTYPE svg PUBLIC "-//W3C//DTD SVG 1.1//EN" "http://www.w3.org/Graphics/SVG/1.1/DTD/svg11.dtd">
<svg width="100%" height="100%" viewBox="0 0 40 36" version="1.1" xmlns="http://www.w3.org/2000/svg" xmlns:xlink="http://www.w3.org/1999/xlink" xml:space="preserve" xmlns:serif="http://www.serif.com/" style="fill-rule:evenodd;clip-rule:evenodd;stroke-linejoin:round;stroke-miterlimit:2;">
    <path d="M25,12.486L25,23.514C25,24.335 24.335,25 23.514,25L16.486,25C16.092,25 15.714,24.843 15.435,24.565C15.157,24.286 15,23.908 15,23.514L15,15.531L19.531,11L23.514,11C24.335,11 25,11.665 25,12.486ZM24.06,12.486C24.06,12.185 23.815,11.94 23.514,11.94L19.92,11.94L15.94,15.92L15.94,23.514C15.94,23.659 15.998,23.797 16.1,23.9C16.203,24.002 16.341,24.06 16.486,24.06L23.514,24.06C23.815,24.06 24.06,23.815 24.06,23.514L24.06,12.486Z"/>
    <g transform="matrix(4.89859e-17,-0.8,0.8,4.89859e-17,7.2,28)">
        <path d="M15.831,10.169L20.831,15.169C21.167,15.505 21.268,16.011 21.086,16.45C20.904,16.889 20.475,17.175 20,17.175L15,17.175C14.351,17.175 13.825,16.649 13.825,16L13.825,11C13.825,10.525 14.111,10.096 14.55,9.914C14.989,9.732 15.495,9.833 15.831,10.169ZM15,11L15,16L20,16L15,11Z"/>
    </g>
</svg>
