<svg width="40" height="36" viewBox="0 0 40 36" fill="none" xmlns="http://www.w3.org/2000/svg">
<path d="M20.9588 8.44321L21.4653 9.71762C21.9922 11.0436 23.5102 11.6723 24.8204 11.1074L26.0797 10.5644C26.937 10.1947 27.8053 11.063 27.4356 11.9203L26.8926 13.1796C26.3277 14.4898 26.9564 16.0078 28.2824 16.5347L29.5568 17.0412C30.4244 17.386 30.4244 18.614 29.5568 18.9588L28.2824 19.4653C26.9564 19.9922 26.3277 21.5102 26.8926 22.8204L27.4356 24.0797C27.8053 24.937 26.937 25.8053 26.0797 25.4356L24.8204 24.8926C23.5102 24.3276 21.9922 24.9564 21.4653 26.2824L20.9588 27.5568C20.614 28.4244 19.386 28.4244 19.0412 27.5568L18.5347 26.2824C18.0078 24.9564 16.4898 24.3277 15.1796 24.8926L13.9203 25.4356C13.063 25.8053 12.1947 24.937 12.5644 24.0797L13.1074 22.8204C13.6723 21.5102 13.0436 19.9922 11.7176 19.4653L10.4432 18.9588C9.57564 18.614 9.57564 17.386 10.4432 17.0412L11.7176 16.5347C13.0436 16.0078 13.6723 14.4898 13.1074 13.1796L12.5644 11.9203C12.1947 11.063 13.063 10.1947 13.9203 10.5644L15.1796 11.1074C16.4898 11.6723 18.0078 11.0436 18.5347 9.71762L19.0412 8.44321C19.386 7.57564 20.614 7.57564 20.9588 8.44321Z" stroke="black" stroke-width="1.5"/>
<circle cx="20" cy="18" r="3.25" stroke="black" stroke-width="1.5"/>
</svg>
