<?xml version="1.0" encoding="UTF-8" standalone="no"?>
<!DOCTYPE svg PUBLIC "-//W3C//DTD SVG 1.1//EN" "http://www.w3.org/Graphics/SVG/1.1/DTD/svg11.dtd">
<svg width="100%" height="100%" viewBox="0 0 40 36" version="1.1" xmlns="http://www.w3.org/2000/svg" xmlns:xlink="http://www.w3.org/1999/xlink" xml:space="preserve" xmlns:serif="http://www.serif.com/" style="fill-rule:evenodd;clip-rule:evenodd;stroke-linejoin:round;stroke-miterlimit:2;">
    <path d="M11,16C11,14.896 11.896,14 13,14L18,14L18,15L13,15C12.448,15 12,15.448 12,16L12,21C12,21.552 12.448,22 13,22L18,22L18,23L13,23C11.896,23 11,22.104 11,21L11,16Z"/>
    <g transform="matrix(-1,1.22465e-16,-1.22465e-16,-1,40,37)">
        <path d="M11,16C11,14.896 11.896,14 13,14L18,14L18,15L13,15C12.448,15 12,15.448 12,16L12,21C12,21.552 12.448,22 13,22L18,22L18,23L13,23C11.896,23 11,22.104 11,21L11,16Z"/>
    </g>
    <g transform="matrix(1,0,0,1.27273,0,-5.54545)">
        <rect x="19" y="13" width="2" height="11"/>
    </g>
    <g transform="matrix(-1.5,-1.83697e-16,1.63286e-16,-1.33333,50,28.6667)">
        <path d="M20,11L22,14L18,14L20,11Z"/>
    </g>
</svg>
