<svg width="40" height="36" viewBox="0 0 40 36" fill="none" xmlns="http://www.w3.org/2000/svg">
<path fill-rule="evenodd" clip-rule="evenodd" d="M11 16.9999C11 15.8959 11.896 14.9999 13 14.9999H18V15.9999H13C12.448 15.9999 12 16.4479 12 16.9999V21.9999C12 22.5519 12.448 22.9999 13 22.9999H18V23.9999H13C11.896 23.9999 11 23.1039 11 21.9999V16.9999Z" fill="black"/>
<path fill-rule="evenodd" clip-rule="evenodd" d="M29 21.9999C29 23.1039 28.104 23.9999 27 23.9999H22V22.9999H27C27.552 22.9999 28 22.5519 28 21.9999V16.9999C28 16.4479 27.552 15.9999 27 15.9999H22V14.9999H27C28.104 14.9999 29 15.8959 29 16.9999V21.9999Z" fill="black"/>
<path d="M21 12H19V26H21V12Z" fill="black"/>
<path fill-rule="evenodd" clip-rule="evenodd" d="M20 15L17 11H23L20 15Z" fill="black"/>
</svg>
