<svg width="40" height="28" viewBox="0 0 40 28" fill="none" xmlns="http://www.w3.org/2000/svg">
<path d="M16 6.5H18.2929L18.3024 6.50947L18.3194 6.52651L18.3364 6.5435L18.3533 6.56044L18.3702 6.57732L18.387 6.59414L18.4038 6.61091L18.4205 6.62763L18.4372 6.6443L18.4538 6.66091L18.4704 6.67746L18.4869 6.69397L18.5033 6.71042L18.5197 6.72682L18.5361 6.74317L18.5524 6.75946L18.5686 6.77571L18.5848 6.7919L18.6009 6.80804L18.617 6.82413L18.6331 6.84017L18.649 6.85615L18.665 6.87209L18.6809 6.88798L18.6967 6.90381L18.7125 6.9196L18.7282 6.93534L18.7439 6.95103L18.7596 6.96666L18.7751 6.98225L18.7907 6.99779L18.8062 7.01329L18.8216 7.02873L18.837 7.04413L18.8524 7.05947L18.8677 7.07477L18.8829 7.09003L18.8981 7.10523L18.9133 7.12039L18.9284 7.13551L18.9435 7.15057L18.9585 7.16559L18.9735 7.18056L18.9884 7.19549L19.0033 7.21037L19.0181 7.22521L19.0329 7.24L19.0476 7.25475L19.0623 7.26945L19.077 7.28411L19.0916 7.29872L19.1062 7.31329L19.1207 7.32782L19.1352 7.3423L19.1496 7.35674L19.164 7.37113L19.1784 7.38548L19.1927 7.39979L19.207 7.41406L19.2212 7.42829L19.2354 7.44247L19.2495 7.45661L19.2636 7.47071L19.2777 7.48477L19.2917 7.49878L19.3057 7.51276L19.3196 7.5267L19.3335 7.54059L19.3473 7.55445L19.3612 7.56826L19.3749 7.58204L19.3887 7.59577L19.4024 7.60947L19.416 7.62312L19.4296 7.63674L19.4432 7.65032L19.4568 7.66386L19.4703 7.67737L19.4837 7.69083L19.4972 7.70426L19.5105 7.71765L19.5239 7.731L19.5372 7.74431L19.5505 7.75759L19.5637 7.77083L19.5769 7.78404L19.5901 7.79721L19.6032 7.81034L19.6163 7.82344L19.6294 7.8365L19.6424 7.84953L19.6554 7.86252L19.6684 7.87547L19.6813 7.88839L19.6942 7.90128L19.707 7.91413L19.7198 7.92695L19.7326 7.93974L19.7454 7.95249L19.7581 7.96521L19.7708 7.97789L19.7834 7.99055L19.7961 8.00317L19.8086 8.01575L19.8212 8.02831L19.8337 8.04083L19.8462 8.05332L19.8587 8.06578L19.8711 8.07821L19.8835 8.09061L19.8959 8.10298L19.9082 8.11531L19.9205 8.12762L19.9328 8.1399L19.945 8.15214L19.9573 8.16436L19.9694 8.17654L19.9816 8.1887L19.9937 8.20083L20.0058 8.21293L20.0179 8.225L20.0299 8.23704L20.0419 8.24906L20.0539 8.26104L20.0659 8.273L20.0778 8.28493L20.0897 8.29683L20.1016 8.30871L20.1135 8.32056L20.1253 8.33238L20.1371 8.34418L20.1488 8.35595L20.1606 8.3677L20.1723 8.37942L20.184 8.39111L20.1957 8.40278L20.2073 8.41442L20.2189 8.42604L20.2305 8.43763L20.2421 8.4492L20.2536 8.46075L20.2652 8.47227L20.2767 8.48377L20.2881 8.49524L20.2996 8.50669L20.311 8.51812L20.3224 8.52953L20.3338 8.54091L20.3452 8.55227L20.3565 8.56361L20.3678 8.57492L20.3791 8.58622L20.3904 8.59749L20.4016 8.60874L20.4129 8.61998L20.4241 8.63119L20.4353 8.64238L20.4464 8.65354L20.4576 8.66469L20.4687 8.67582L20.4798 8.68693L20.4909 8.69802L20.502 8.70909L20.513 8.72015L20.5241 8.73118L20.5351 8.74219L20.5461 8.75319L20.5571 8.76417L20.568 8.77513L20.579 8.78607L20.5899 8.797L20.6008 8.8079L20.6117 8.81879L20.6226 8.82967L20.6334 8.84053L20.6443 8.85137L20.6551 8.86219L20.6659 8.873L20.6767 8.8838L20.6875 8.89457L20.6982 8.90534L20.709 8.91609L20.7197 8.92682L20.7304 8.93754L20.7411 8.94824L20.7518 8.95893L20.7625 8.96961L20.7732 8.98027L20.7838 8.99092L20.7945 9.00156L20.8051 9.01218L20.8157 9.02279L20.8263 9.03339L20.8369 9.04398L20.8474 9.05455L20.858 9.06511L20.8686 9.07566L20.8791 9.0862L20.8896 9.09673L20.9001 9.10725L20.9106 9.11775L20.9211 9.12825L20.9316 9.13873L20.9421 9.14921L20.9526 9.15967L20.963 9.17013L20.9735 9.18058L20.9839 9.19101L20.9943 9.20144L21.0048 9.21186L21.0152 9.22227L21.0256 9.23267L21.036 9.24307L21.0463 9.25346L21.0567 9.26384L21.0671 9.27421L21.0775 9.28457L21.0878 9.29493L21.0982 9.30528L21.1085 9.31563L21.1189 9.32596L21.1292 9.3363L21.1395 9.34662L21.1498 9.35694L21.1602 9.36726L21.1705 9.37757L21.1808 9.38788L21.1911 9.39818L21.2014 9.40847L21.2117 9.41877L21.2219 9.42905L21.2322 9.43934L21.2425 9.44962L21.2528 9.4599L21.2631 9.47017L21.2733 9.48044L21.2836 9.49071L21.2939 9.50098L21.3041 9.51124L21.3144 9.5215L21.3247 9.53176L21.3349 9.54202L21.3452 9.55228L21.3554 9.56254L21.3657 9.57279L21.3759 9.58305L21.3862 9.5933L21.3964 9.60355L21.4067 9.61381L21.417 9.62406L21.4272 9.63432L21.4375 9.64457L21.4477 9.65483L21.458 9.66508L21.4682 9.67534L21.4785 9.6856L21.4888 9.69587L21.499 9.70613L21.5093 9.7164L21.5196 9.72666L21.5298 9.73694L21.5401 9.74721L21.5504 9.75749L21.5607 9.76777L21.5709 9.77805L21.5812 9.78834L21.5915 9.79863L21.6018 9.80893L21.6121 9.81923L21.6224 9.82954L21.6327 9.83985L21.6431 9.85016L21.6534 9.86048L21.6637 9.87081L21.674 9.88114L21.6844 9.89148L21.6947 9.90183L21.7051 9.91218L21.7154 9.92253L21.7258 9.9329L21.7362 9.94327L21.7465 9.95365L21.7569 9.96404L21.7673 9.97443L21.7777 9.98483L21.7881 9.99525L21.7986 10.0057L21.809 10.0161L21.8194 10.0265L21.8299 10.037L21.8403 10.0474L21.8508 10.0579L21.8613 10.0684L21.8718 10.0789L21.8822 10.0894L21.8928 10.0999L21.9033 10.1104L21.9138 10.1209L21.9243 10.1314L21.9349 10.142L21.9454 10.1526L21.956 10.1631L21.9666 10.1737L21.9772 10.1843L21.9878 10.1949L21.9984 10.2055L22.0091 10.2162L22.0197 10.2268L22.0304 10.2375L22.0411 10.2482L22.0518 10.2589L22.0625 10.2696L22.0732 10.2803L22.0839 10.291L22.0947 10.3018L22.1054 10.3125L22.1162 10.3233L22.127 10.3341L22.1378 10.3449L22.1486 10.3557L22.1595 10.3666L22.1703 10.3774L22.1812 10.3883L22.1921 10.3992L22.203 10.4101L22.2139 10.421L22.2249 10.432L22.2358 10.4429L22.2468 10.4539L22.2578 10.4649L22.2688 10.4759L22.2799 10.487L22.2909 10.498L22.302 10.5091L22.3131 10.5202L22.3242 10.5313L22.3353 10.5424L22.3465 10.5536L22.3576 10.5647L22.3688 10.5759L22.38 10.5871L22.3913 10.5984L22.4025 10.6096L22.4138 10.6209L22.4251 10.6322L22.4364 10.6435L22.4477 10.6548L22.4591 10.6662L22.4705 10.6776L22.4819 10.689L22.4933 10.7004L22.5048 10.7119L22.5162 10.7233L22.5277 10.7348L22.5393 10.7464L22.5508 10.7579L22.5624 10.7695L22.574 10.7811L22.5856 10.7927L22.5972 10.8043L22.6089 10.816L22.6206 10.8277L22.6323 10.8394L22.644 10.8512L22.6558 10.8629L22.6676 10.8747L22.6794 10.8865L22.6913 10.8984L22.7032 10.9103L22.7151 10.9222L22.727 10.9341L22.739 10.9461L22.7509 10.9581L22.763 10.9701L22.775 10.9821L22.7871 10.9942L22.7992 11.0063L22.8113 11.0184L22.8235 11.0306L22.8356 11.0427L22.8479 11.055L22.8601 11.0672L22.8724 11.0795L22.8847 11.0918L22.897 11.1041L22.9094 11.1165L22.9218 11.1289L22.9342 11.1413L22.9467 11.1538L22.9592 11.1663L22.9717 11.1788L22.9842 11.1914L22.9968 11.2039L23.0095 11.2166L23.0221 11.2292L23.0348 11.2419L23.0475 11.2546L23.0603 11.2674L23.073 11.2802L23.0859 11.293L23.0987 11.3058L23.1116 11.3187L23.1245 11.3316L23.1375 11.3446L23.1505 11.3576L23.1635 11.3706L23.1766 11.3837L23.1897 11.3968L23.2028 11.4099L23.216 11.4231L23.2292 11.4363L23.2424 11.4495L23.2557 11.4628L23.269 11.4761L23.2824 11.4895L23.2957 11.5028L23.3092 11.5163L23.3226 11.5297L23.3361 11.5432L23.3497 11.5568L23.3633 11.5704L23.3769 11.584L23.3905 11.5976L23.4042 11.6113L23.418 11.6251L23.4317 11.6388L23.4456 11.6527L23.4594 11.6665L23.4733 11.6804L23.4872 11.6943L23.5012 11.7083L23.5152 11.7223L23.5293 11.7364L23.5434 11.7505L23.5575 11.7646L23.5717 11.7788L23.5859 11.793L23.6002 11.8073L23.6145 11.8216L23.6289 11.836L23.6433 11.8504L23.6577 11.8648L23.6722 11.8793L23.6867 11.8938L23.7013 11.9084L23.7159 11.923L23.7305 11.9377L23.7453 11.9524L23.76 11.9671L23.7748 11.9819L23.7896 11.9967L23.8045 12.0116L23.8194 12.0265L23.8344 12.0415L23.8494 12.0565L23.8645 12.0716L23.8796 12.0867L23.8948 12.1019L23.91 12.1171L23.9252 12.1323L23.9405 12.1476L23.9559 12.163L23.9713 12.1784L23.9867 12.1938L24.0022 12.2093L24.0177 12.2249L24.0333 12.2404L24.049 12.2561L24.0647 12.2718L24.0804 12.2875L24.0962 12.3033L24.112 12.3191L24.1279 12.335L24.1438 12.351L24.1598 12.3669L24.1759 12.383L24.192 12.3991L24.2081 12.4152L24.2243 12.4314L24.2405 12.4476L24.2568 12.4639L24.2732 12.4803L24.2896 12.4967L24.306 12.5131L24.3225 12.5296L24.3391 12.5462L24.3557 12.5628L24.3724 12.5795L24.3891 12.5962L24.4059 12.613L24.4227 12.6298L24.4396 12.6467L24.4565 12.6636L24.4735 12.6806L24.4905 12.6976L24.5 12.7071V21C24.5 21.2761 24.2761 21.5 24 21.5H16C15.7239 21.5 15.5 21.2761 15.5 21V7C15.5 6.72386 15.7239 6.5 16 6.5Z" stroke="black"/>
<path d="M18.5 11V7.20711L23.7929 12.5H20C19.1716 12.5 18.5 11.8284 18.5 11Z" fill="black" stroke="black"/>
</svg>
