<?xml version="1.0" encoding="UTF-8" standalone="no"?>
<!DOCTYPE svg PUBLIC "-//W3C//DTD SVG 1.1//EN" "http://www.w3.org/Graphics/SVG/1.1/DTD/svg11.dtd">
<svg width="100%" height="100%" viewBox="0 0 40 28" version="1.1" xmlns="http://www.w3.org/2000/svg" xmlns:xlink="http://www.w3.org/1999/xlink" xml:space="preserve" xmlns:serif="http://www.serif.com/" style="fill-rule:evenodd;clip-rule:evenodd;stroke-linejoin:round;stroke-miterlimit:2;">
    <g transform="matrix(1,0,0,1,5,0)">
        <g id="propperties">
            <g transform="matrix(0.615385,0,0,0.615385,5.76923,5.76923)">
                <path d="M28,6.875C28,4.184 25.816,2 23.125,2L6.875,2C4.184,2 2,4.184 2,6.875L2,23.125C2,25.816 4.184,28 6.875,28L23.125,28C25.816,28 28,25.816 28,23.125L28,6.875Z" style="fill:rgb(235,235,235);fill-opacity:0;"/>
                <path d="M28,6.875L28,23.125C28,25.816 25.816,28 23.125,28L6.875,28C4.184,28 2,25.816 2,23.125L2,6.875C2,4.184 4.184,2 6.875,2L23.125,2C25.816,2 28,4.184 28,6.875ZM26.476,6.875C26.476,5.025 24.975,3.524 23.125,3.524L6.875,3.524C5.025,3.524 3.524,5.025 3.524,6.875L3.524,23.125C3.524,24.975 5.025,26.476 6.875,26.476L23.125,26.476C24.975,26.476 26.476,24.975 26.476,23.125L26.476,6.875Z"/>
            </g>
            <g transform="matrix(1,0,0,16,-3,-89)">
                <path d="M26,6.188C26,6.084 24.656,6 23,6L20,6L20,7L23,7C24.656,7 26,6.916 26,6.813L26,6.188Z"/>
            </g>
        </g>
    </g>
</svg>
