<svg width="40" height="28" viewBox="0 0 40 28" fill="none" xmlns="http://www.w3.org/2000/svg">
<path d="M19.8992 6.66893L20 6.41529L20.1008 6.66893C20.8879 8.64954 23.1555 9.58878 25.1126 8.74487L25.3632 8.6368L25.2551 8.88743C24.4112 10.8445 25.3505 13.1121 27.3311 13.8992L27.5847 14L27.3311 14.1008C25.3505 14.8879 24.4112 17.1555 25.2551 19.1126L25.3632 19.3632L25.1126 19.2551C23.1555 18.4112 20.8879 19.3505 20.1008 21.3311L20 21.5847L19.8992 21.3311C19.1121 19.3505 16.8445 18.4112 14.8874 19.2551L14.6368 19.3632L14.7449 19.1126C15.5888 17.1555 14.6495 14.8879 12.6689 14.1008L12.4153 14L12.6689 13.8992C14.6495 13.1121 15.5888 10.8445 14.7449 8.88743L14.6368 8.6368L14.8874 8.74487C16.8445 9.58878 19.1121 8.64954 19.8992 6.66893Z" stroke="black" stroke-width="4"/>
</svg>
