<svg width="30" height="30" viewBox="0 0 30 30" fill="none" xmlns="http://www.w3.org/2000/svg">
<path d="M10.5 8C10.5 7.72386 10.7239 7.5 11 7.5H13.2929L13.3024 7.50947L13.3194 7.52651L13.3364 7.5435L13.3533 7.56044L13.3702 7.57732L13.387 7.59414L13.4038 7.61091L13.4205 7.62763L13.4372 7.6443L13.4538 7.66091L13.4704 7.67746L13.4869 7.69397L13.5033 7.71042L13.5197 7.72682L13.5361 7.74317L13.5524 7.75946L13.5686 7.77571L13.5848 7.7919L13.6009 7.80804L13.617 7.82413L13.6331 7.84017L13.649 7.85615L13.665 7.87209L13.6809 7.88798L13.6967 7.90381L13.7125 7.9196L13.7282 7.93534L13.7439 7.95103L13.7596 7.96666L13.7751 7.98225L13.7907 7.99779L13.8062 8.01329L13.8216 8.02873L13.837 8.04413L13.8524 8.05947L13.8677 8.07477L13.8829 8.09003L13.8981 8.10523L13.9133 8.12039L13.9284 8.13551L13.9435 8.15057L13.9585 8.16559L13.9735 8.18056L13.9884 8.19549L14.0033 8.21037L14.0181 8.22521L14.0329 8.24L14.0476 8.25475L14.0623 8.26945L14.077 8.28411L14.0916 8.29872L14.1062 8.31329L14.1207 8.32782L14.1352 8.3423L14.1496 8.35674L14.164 8.37113L14.1784 8.38548L14.1927 8.39979L14.207 8.41406L14.2212 8.42829L14.2354 8.44247L14.2495 8.45661L14.2636 8.47071L14.2777 8.48477L14.2917 8.49878L14.3057 8.51276L14.3196 8.5267L14.3335 8.54059L14.3473 8.55445L14.3612 8.56826L14.3749 8.58204L14.3887 8.59577L14.4024 8.60947L14.416 8.62312L14.4296 8.63674L14.4432 8.65032L14.4568 8.66386L14.4703 8.67737L14.4837 8.69083L14.4972 8.70426L14.5105 8.71765L14.5239 8.731L14.5372 8.74431L14.5505 8.75759L14.5637 8.77083L14.5769 8.78404L14.5901 8.79721L14.6032 8.81034L14.6163 8.82344L14.6294 8.8365L14.6424 8.84953L14.6554 8.86252L14.6684 8.87547L14.6813 8.88839L14.6942 8.90128L14.707 8.91413L14.7198 8.92695L14.7326 8.93974L14.7454 8.95249L14.7581 8.96521L14.7708 8.97789L14.7834 8.99055L14.7961 9.00317L14.8086 9.01575L14.8212 9.02831L14.8337 9.04083L14.8462 9.05332L14.8587 9.06578L14.8711 9.07821L14.8835 9.09061L14.8959 9.10298L14.9082 9.11531L14.9205 9.12762L14.9328 9.1399L14.945 9.15214L14.9573 9.16436L14.9694 9.17654L14.9816 9.1887L14.9937 9.20083L15.0058 9.21293L15.0179 9.225L15.0299 9.23704L15.0419 9.24906L15.0539 9.26104L15.0659 9.273L15.0778 9.28493L15.0897 9.29683L15.1016 9.30871L15.1135 9.32056L15.1253 9.33238L15.1371 9.34418L15.1488 9.35595L15.1606 9.3677L15.1723 9.37942L15.184 9.39111L15.1957 9.40278L15.2073 9.41442L15.2189 9.42604L15.2305 9.43763L15.2421 9.4492L15.2536 9.46075L15.2652 9.47227L15.2767 9.48377L15.2881 9.49524L15.2996 9.50669L15.311 9.51812L15.3224 9.52953L15.3338 9.54091L15.3452 9.55227L15.3565 9.56361L15.3678 9.57492L15.3791 9.58622L15.3904 9.59749L15.4016 9.60874L15.4129 9.61998L15.4241 9.63119L15.4353 9.64238L15.4464 9.65354L15.4576 9.66469L15.4687 9.67582L15.4798 9.68693L15.4909 9.69802L15.502 9.70909L15.513 9.72015L15.5241 9.73118L15.5351 9.74219L15.5461 9.75319L15.5571 9.76417L15.568 9.77513L15.579 9.78607L15.5899 9.797L15.6008 9.8079L15.6117 9.81879L15.6226 9.82967L15.6334 9.84053L15.6443 9.85137L15.6551 9.86219L15.6659 9.873L15.6767 9.8838L15.6875 9.89457L15.6982 9.90534L15.709 9.91609L15.7197 9.92682L15.7304 9.93754L15.7411 9.94824L15.7518 9.95893L15.7625 9.96961L15.7732 9.98027L15.7838 9.99092L15.7945 10.0016L15.8051 10.0122L15.8157 10.0228L15.8263 10.0334L15.8369 10.044L15.8474 10.0546L15.858 10.0651L15.8686 10.0757L15.8791 10.0862L15.8896 10.0967L15.9001 10.1072L15.9106 10.1178L15.9211 10.1282L15.9316 10.1387L15.9421 10.1492L15.9526 10.1597L15.963 10.1701L15.9735 10.1806L15.9839 10.191L15.9943 10.2014L16.0048 10.2119L16.0152 10.2223L16.0256 10.2327L16.036 10.2431L16.0463 10.2535L16.0567 10.2638L16.0671 10.2742L16.0775 10.2846L16.0878 10.2949L16.0982 10.3053L16.1085 10.3156L16.1189 10.326L16.1292 10.3363L16.1395 10.3466L16.1498 10.3569L16.1602 10.3673L16.1705 10.3776L16.1808 10.3879L16.1911 10.3982L16.2014 10.4085L16.2117 10.4188L16.2219 10.4291L16.2322 10.4393L16.2425 10.4496L16.2528 10.4599L16.2631 10.4702L16.2733 10.4804L16.2836 10.4907L16.2939 10.501L16.3041 10.5112L16.3144 10.5215L16.3247 10.5318L16.3349 10.542L16.3452 10.5523L16.3554 10.5625L16.3657 10.5728L16.3759 10.583L16.3862 10.5933L16.3964 10.6036L16.4067 10.6138L16.417 10.6241L16.4272 10.6343L16.4375 10.6446L16.4477 10.6548L16.458 10.6651L16.4682 10.6753L16.4785 10.6856L16.4888 10.6959L16.499 10.7061L16.5093 10.7164L16.5196 10.7267L16.5298 10.7369L16.5401 10.7472L16.5504 10.7575L16.5607 10.7678L16.5709 10.7781L16.5812 10.7883L16.5915 10.7986L16.6018 10.8089L16.6121 10.8192L16.6224 10.8295L16.6327 10.8398L16.6431 10.8502L16.6534 10.8605L16.6637 10.8708L16.674 10.8811L16.6844 10.8915L16.6947 10.9018L16.7051 10.9122L16.7154 10.9225L16.7258 10.9329L16.7362 10.9433L16.7465 10.9537L16.7569 10.964L16.7673 10.9744L16.7777 10.9848L16.7881 10.9952L16.7986 11.0057L16.809 11.0161L16.8194 11.0265L16.8299 11.037L16.8403 11.0474L16.8508 11.0579L16.8613 11.0684L16.8718 11.0789L16.8822 11.0894L16.8928 11.0999L16.9033 11.1104L16.9138 11.1209L16.9243 11.1314L16.9349 11.142L16.9454 11.1526L16.956 11.1631L16.9666 11.1737L16.9772 11.1843L16.9878 11.1949L16.9984 11.2055L17.0091 11.2162L17.0197 11.2268L17.0304 11.2375L17.0411 11.2482L17.0518 11.2589L17.0625 11.2696L17.0732 11.2803L17.0839 11.291L17.0947 11.3018L17.1054 11.3125L17.1162 11.3233L17.127 11.3341L17.1378 11.3449L17.1486 11.3557L17.1595 11.3666L17.1703 11.3774L17.1812 11.3883L17.1921 11.3992L17.203 11.4101L17.2139 11.421L17.2249 11.432L17.2358 11.4429L17.2468 11.4539L17.2578 11.4649L17.2688 11.4759L17.2799 11.487L17.2909 11.498L17.302 11.5091L17.3131 11.5202L17.3242 11.5313L17.3353 11.5424L17.3465 11.5536L17.3576 11.5647L17.3688 11.5759L17.38 11.5871L17.3913 11.5984L17.4025 11.6096L17.4138 11.6209L17.4251 11.6322L17.4364 11.6435L17.4477 11.6548L17.4591 11.6662L17.4705 11.6776L17.4819 11.689L17.4933 11.7004L17.5048 11.7119L17.5162 11.7233L17.5277 11.7348L17.5393 11.7464L17.5508 11.7579L17.5624 11.7695L17.574 11.7811L17.5856 11.7927L17.5972 11.8043L17.6089 11.816L17.6206 11.8277L17.6323 11.8394L17.644 11.8512L17.6558 11.8629L17.6676 11.8747L17.6794 11.8865L17.6913 11.8984L17.7032 11.9103L17.7151 11.9222L17.727 11.9341L17.739 11.9461L17.7509 11.9581L17.763 11.9701L17.775 11.9821L17.7871 11.9942L17.7992 12.0063L17.8113 12.0184L17.8235 12.0306L17.8356 12.0427L17.8479 12.055L17.8601 12.0672L17.8724 12.0795L17.8847 12.0918L17.897 12.1041L17.9094 12.1165L17.9218 12.1289L17.9342 12.1413L17.9467 12.1538L17.9592 12.1663L17.9717 12.1788L17.9842 12.1914L17.9968 12.2039L18.0095 12.2166L18.0221 12.2292L18.0348 12.2419L18.0475 12.2546L18.0603 12.2674L18.073 12.2802L18.0859 12.293L18.0987 12.3058L18.1116 12.3187L18.1245 12.3316L18.1375 12.3446L18.1505 12.3576L18.1635 12.3706L18.1766 12.3837L18.1897 12.3968L18.2028 12.4099L18.216 12.4231L18.2292 12.4363L18.2424 12.4495L18.2557 12.4628L18.269 12.4761L18.2824 12.4895L18.2957 12.5028L18.3092 12.5163L18.3226 12.5297L18.3361 12.5432L18.3497 12.5568L18.3633 12.5704L18.3769 12.584L18.3905 12.5976L18.4042 12.6113L18.418 12.6251L18.4317 12.6388L18.4456 12.6527L18.4594 12.6665L18.4733 12.6804L18.4872 12.6943L18.5012 12.7083L18.5152 12.7223L18.5293 12.7364L18.5434 12.7505L18.5575 12.7646L18.5717 12.7788L18.5859 12.793L18.6002 12.8073L18.6145 12.8216L18.6289 12.836L18.6433 12.8504L18.6577 12.8648L18.6722 12.8793L18.6867 12.8938L18.7013 12.9084L18.7159 12.923L18.7305 12.9377L18.7453 12.9524L18.76 12.9671L18.7748 12.9819L18.7896 12.9967L18.8045 13.0116L18.8194 13.0265L18.8344 13.0415L18.8494 13.0565L18.8645 13.0716L18.8796 13.0867L18.8948 13.1019L18.91 13.1171L18.9252 13.1323L18.9405 13.1476L18.9559 13.163L18.9713 13.1784L18.9867 13.1938L19.0022 13.2093L19.0177 13.2249L19.0333 13.2404L19.049 13.2561L19.0647 13.2718L19.0804 13.2875L19.0962 13.3033L19.112 13.3191L19.1279 13.335L19.1438 13.351L19.1598 13.3669L19.1759 13.383L19.192 13.3991L19.2081 13.4152L19.2243 13.4314L19.2405 13.4476L19.2568 13.4639L19.2732 13.4803L19.2896 13.4967L19.306 13.5131L19.3225 13.5296L19.3391 13.5462L19.3557 13.5628L19.3724 13.5795L19.3891 13.5962L19.4059 13.613L19.4227 13.6298L19.4396 13.6467L19.4565 13.6636L19.4735 13.6806L19.4905 13.6976L19.5 13.7071V22C19.5 22.2761 19.2761 22.5 19 22.5H11C10.7239 22.5 10.5 22.2761 10.5 22V8Z" stroke="black"/>
<path d="M13.5 12V8.20711L18.7929 13.5H15C14.1716 13.5 13.5 12.8284 13.5 12Z" fill="black" stroke="black"/>
</svg>
