<svg width="30" height="30" viewBox="0 0 30 30" fill="none" xmlns="http://www.w3.org/2000/svg">
<path fill-rule="evenodd" clip-rule="evenodd" d="M13.6697 7.90279C14.1481 6.69907 15.8519 6.69907 16.3303 7.90279L16.5742 8.51664C16.8722 9.26635 17.7305 9.62187 18.4713 9.30243L19.0779 9.04088C20.2673 8.52799 21.472 9.73272 20.9591 10.9221L20.6976 11.5287C20.3781 12.2695 20.7336 13.1278 21.4834 13.4258L22.0972 13.6697C23.3009 14.1481 23.3009 15.8519 22.0972 16.3303L21.4834 16.5742C20.7336 16.8722 20.3781 17.7305 20.6976 18.4713L20.9591 19.0779C21.472 20.2673 20.2673 21.472 19.0779 20.9591L18.4713 20.6976C17.7305 20.3781 16.8722 20.7336 16.5742 21.4834L16.3303 22.0972C15.8519 23.3009 14.1481 23.3009 13.6697 22.0972L13.4258 21.4834C13.1278 20.7336 12.2695 20.3781 11.5287 20.6976L10.9221 20.9591C9.73272 21.472 8.52799 20.2673 9.04088 19.0779L9.30243 18.4713C9.62187 17.7305 9.26635 16.8722 8.51665 16.5742L7.90279 16.3303C6.69907 15.8519 6.69907 14.1481 7.90279 13.6697L8.51664 13.4258C9.26635 13.1278 9.62187 12.2695 9.30243 11.5287L9.04088 10.9221C8.52799 9.73272 9.73272 8.52799 10.9221 9.04088L11.5287 9.30243C12.2695 9.62187 13.1278 9.26635 13.4258 8.51665L13.6697 7.90279ZM15 19C17.2091 19 19 17.2091 19 15C19 12.7909 17.2091 11 15 11C12.7909 11 11 12.7909 11 15C11 17.2091 12.7909 19 15 19Z" fill="black"/>
</svg>
