<svg width="30" height="30" viewBox="0 0 30 30" fill="none" xmlns="http://www.w3.org/2000/svg">
<path fill-rule="evenodd" clip-rule="evenodd" d="M8 9H18C18.5523 9 19 9.44772 19 10V12H20V10C20 8.89543 19.1046 8 18 8H8C6.89543 8 6 8.89543 6 10V16C6 17.1046 6.89543 18 8 18H10V17H8C7.44772 17 7 16.5523 7 16V10C7 9.44772 7.44772 9 8 9Z" fill="black"/>
<path fill-rule="evenodd" clip-rule="evenodd" d="M10 14C10 13.8523 10.016 13.7082 10.0464 13.5696C10.2433 12.6719 11.0432 12 12 12H22C22.9568 12 23.7567 12.6719 23.9536 13.5696C23.984 13.7082 24 13.8523 24 14V20C24 21.1046 23.1046 22 22 22H12C10.8954 22 10 21.1046 10 20V14ZM11 20V15H12H22H23V20C23 20.5523 22.5523 21 22 21H12C11.4477 21 11 20.5523 11 20ZM11.5 14C11.7761 14 12 13.7761 12 13.5C12 13.2239 11.7761 13 11.5 13C11.2239 13 11 13.2239 11 13.5C11 13.7761 11.2239 14 11.5 14ZM14 13.5C14 13.7761 13.7761 14 13.5 14C13.2239 14 13 13.7761 13 13.5C13 13.2239 13.2239 13 13.5 13C13.7761 13 14 13.2239 14 13.5ZM15.5 14C15.7761 14 16 13.7761 16 13.5C16 13.2239 15.7761 13 15.5 13C15.2239 13 15 13.2239 15 13.5C15 13.7761 15.2239 14 15.5 14Z" fill="black"/>
</svg>
