<svg width="30" height="30" viewBox="0 0 30 30" fill="none" xmlns="http://www.w3.org/2000/svg">
<path fill-rule="evenodd" clip-rule="evenodd" d="M8 9H18C18.5523 9 19 9.44772 19 10V12H20V10C20 8.89543 19.1046 8 18 8H8C6.89543 8 6 8.89543 6 10V16C6 17.1046 6.89543 18 8 18H10V17H8C7.44772 17 7 16.5523 7 16V10C7 9.44772 7.44772 9 8 9Z" fill="black"/>
<path d="M10 14C10 12.8954 10.8954 12 12 12H22C23.1046 12 24 12.8954 24 14V20C24 21.1046 23.1046 22 22 22H12C10.8954 22 10 21.1046 10 20V14Z" fill="black"/>
</svg>
