<svg width="30" height="22" viewBox="0 0 30 22" fill="none" xmlns="http://www.w3.org/2000/svg">
<rect x="8.5" y="4.5" width="13" height="13" stroke="black"/>
<path d="M9.59622 12.8068V12.2273L12.153 8.18182H12.5735V9.07955H12.2894L10.3576 12.1364V12.1818H13.8008V12.8068H9.59622ZM12.3349 14V12.6307V12.3608V8.18182H13.0053V14H12.3349ZM15.0854 13.2557C14.9452 13.2557 14.825 13.2055 14.7246 13.1051C14.6242 13.0047 14.574 12.8845 14.574 12.7443C14.574 12.6042 14.6242 12.4839 14.7246 12.3835C14.825 12.2831 14.9452 12.233 15.0854 12.233C15.2255 12.233 15.3458 12.2831 15.4462 12.3835C15.5466 12.4839 15.5968 12.6042 15.5968 12.7443C15.5968 12.8371 15.5731 12.9223 15.5257 13C15.4803 13.0777 15.4187 13.1402 15.3411 13.1875C15.2653 13.233 15.1801 13.2557 15.0854 13.2557ZM15.0854 10.3125C14.9452 10.3125 14.825 10.2623 14.7246 10.1619C14.6242 10.0616 14.574 9.94129 14.574 9.80114C14.574 9.66098 14.6242 9.54072 14.7246 9.44034C14.825 9.33996 14.9452 9.28977 15.0854 9.28977C15.2255 9.28977 15.3458 9.33996 15.4462 9.44034C15.5466 9.54072 15.5968 9.66098 15.5968 9.80114C15.5968 9.89394 15.5731 9.97917 15.5257 10.0568C15.4803 10.1345 15.4187 10.197 15.3411 10.2443C15.2653 10.2898 15.1801 10.3125 15.0854 10.3125ZM18.4744 14.0795C18.0994 14.0795 17.7652 14.0152 17.4716 13.8864C17.1799 13.7576 16.9479 13.5786 16.7756 13.3494C16.6051 13.1184 16.5123 12.8504 16.4972 12.5455H17.2131C17.2282 12.733 17.2926 12.8949 17.4063 13.0312C17.5199 13.1657 17.6686 13.2699 17.8523 13.3438C18.036 13.4176 18.2396 13.4545 18.4631 13.4545C18.7131 13.4545 18.9347 13.411 19.1278 13.3239C19.321 13.2367 19.4725 13.1155 19.5824 12.9602C19.6922 12.8049 19.7472 12.625 19.7472 12.4205C19.7472 12.2064 19.6941 12.018 19.5881 11.8551C19.482 11.6903 19.3267 11.5616 19.1222 11.4688C18.9176 11.3759 18.6676 11.3295 18.3722 11.3295H17.9063V10.7045H18.3722C18.6032 10.7045 18.8059 10.6629 18.9801 10.5795C19.1563 10.4962 19.2936 10.3788 19.392 10.2273C19.4924 10.0758 19.5426 9.89773 19.5426 9.69318C19.5426 9.49621 19.4991 9.32481 19.4119 9.17898C19.3248 9.03314 19.2017 8.91951 19.0426 8.83807C18.8854 8.75663 18.6998 8.71591 18.4858 8.71591C18.285 8.71591 18.0956 8.75284 17.9176 8.8267C17.7415 8.89867 17.5975 9.00379 17.4858 9.14205C17.3741 9.27841 17.3134 9.44318 17.304 9.63636H16.6222C16.6335 9.33144 16.7254 9.06439 16.8977 8.83523C17.0701 8.60417 17.2955 8.42424 17.5739 8.29545C17.8542 8.16667 18.1619 8.10227 18.4972 8.10227C18.857 8.10227 19.1657 8.17519 19.4233 8.32102C19.6809 8.46496 19.8788 8.6553 20.017 8.89205C20.1553 9.12879 20.2244 9.38447 20.2244 9.65909C20.2244 9.98674 20.1383 10.2661 19.9659 10.4972C19.7955 10.7282 19.5634 10.8883 19.2699 10.9773V11.0227C19.6373 11.0833 19.9242 11.2396 20.1307 11.4915C20.3371 11.7415 20.4403 12.0511 20.4403 12.4205C20.4403 12.7367 20.3542 13.0208 20.1818 13.2727C20.0114 13.5227 19.7784 13.7197 19.483 13.8636C19.1875 14.0076 18.8513 14.0795 18.4744 14.0795Z" fill="black"/>
</svg>
