<svg width="30" height="30" viewBox="0 0 30 30" fill="none" xmlns="http://www.w3.org/2000/svg">
<path d="M12 8C11.4477 8 11 8.44772 11 9C11 9.55228 11.4477 10 12 10V8ZM12 10C13.5119 10 14.7824 10.0006 15.8613 10.083C16.9448 10.1658 17.7433 10.3261 18.3333 10.5966C18.8883 10.8509 19.2714 11.2074 19.5377 11.7566C19.8204 12.3397 20 13.2012 20 14.5H22C22 13.0488 21.8046 11.8478 21.3373 10.884C20.8536 9.88636 20.1117 9.21157 19.1667 8.77844C18.2567 8.36136 17.1802 8.17795 16.0137 8.08884C14.8426 7.99939 13.4881 8 12 8V10ZM20 14.5C20 15.7893 19.8074 16.6453 19.5115 17.2253C19.2307 17.7759 18.8256 18.1403 18.2467 18.4002C17.6365 18.6742 16.8256 18.8344 15.7551 18.917C14.6881 18.9994 13.449 19 12 19V21C13.426 21 14.7494 21.0006 15.909 20.9111C17.065 20.8219 18.1447 20.6383 19.0658 20.2248C20.0181 19.7972 20.785 19.1303 21.2931 18.1341C21.7863 17.1672 22 15.9607 22 14.5H20Z" fill="black"/>
<path d="M6 20L12 16.5359L12 23.4641L6 20Z" fill="black"/>
</svg>
