<svg width="30" height="30" viewBox="0 0 30 30" fill="none" xmlns="http://www.w3.org/2000/svg">
<path d="M21.1585 15C22.1755 15 23.021 14.1649 22.789 13.1747C22.5712 12.2453 22.1876 11.3574 21.6518 10.5554C20.7727 9.23984 19.5233 8.21446 18.0615 7.60896C16.5997 7.00346 14.9911 6.84504 13.4393 7.15372C11.8874 7.4624 10.462 8.22433 9.34315 9.34315C8.22433 10.462 7.4624 11.8874 7.15372 13.4393C6.84504 14.9911 7.00346 16.5997 7.60896 18.0615C8.21446 19.5233 9.23984 20.7727 10.5554 21.6518C11.3574 22.1876 12.2453 22.5712 13.1747 22.789C14.1649 23.021 15 22.1755 15 21.1585V21.1585C15 20.1415 14.1397 19.351 13.2138 18.9302C13.0018 18.8338 12.797 18.72 12.6016 18.5895C11.8917 18.1151 11.3383 17.4409 11.0116 16.6521C10.6848 15.8632 10.5994 14.9952 10.7659 14.1578C10.9325 13.3204 11.3437 12.5512 11.9474 11.9474C12.5512 11.3437 13.3204 10.9325 14.1578 10.7659C14.9952 10.5994 15.8632 10.6848 16.6521 11.0116C17.4409 11.3383 18.1151 11.8917 18.5895 12.6016C18.72 12.797 18.8338 13.0018 18.9302 13.2138C19.351 14.1397 20.1415 15 21.1585 15V15Z" fill="black"/>
</svg>
