<svg width="20" height="20" viewBox="0 0 20 20" fill="none" xmlns="http://www.w3.org/2000/svg">
<circle cx="10" cy="10" r="8" stroke="black" stroke-width="2"/>
<path d="M13 10C13 12.3789 12.5695 14.4844 11.9146 15.9578C11.5866 16.6958 11.222 17.2311 10.8676 17.5683C10.5184 17.9007 10.2269 18 10 18C9.7731 18 9.48164 17.9007 9.1324 17.5683C8.77801 17.2311 8.41337 16.6958 8.08538 15.9578C7.43054 14.4844 7 12.3789 7 10C7 7.62114 7.43054 5.51558 8.08538 4.04218C8.41337 3.30422 8.77801 2.76892 9.1324 2.43166C9.48164 2.0993 9.7731 2 10 2C10.2269 2 10.5184 2.0993 10.8676 2.43166C11.222 2.76892 11.5866 3.30422 11.9146 4.04218C12.5695 5.51558 13 7.62114 13 10Z" stroke="black" stroke-width="2"/>
<path d="M2 9C3.33333 9.66667 6 11 10 11C14 11 16.6667 9.66667 18 9" stroke="black" stroke-width="2"/>
</svg>
