<?xml version="1.0" encoding="UTF-8" standalone="no"?>
<!DOCTYPE svg PUBLIC "-//W3C//DTD SVG 1.1//EN" "http://www.w3.org/Graphics/SVG/1.1/DTD/svg11.dtd">
<svg width="100%" height="100%" viewBox="0 0 30 22" version="1.1" xmlns="http://www.w3.org/2000/svg" xmlns:xlink="http://www.w3.org/1999/xlink" xml:space="preserve" xmlns:serif="http://www.serif.com/" style="fill-rule:evenodd;clip-rule:evenodd;stroke-linejoin:round;stroke-miterlimit:2;">
    <path d="M22,6L22,16C22,17.104 21.104,18 20,18L10,18C8.896,18 8,17.104 8,16L8,6C8,4.896 8.896,4 10,4L20,4C21.104,4 22,4.896 22,6ZM21.031,6C21.031,5.431 20.569,4.969 20,4.969L10,4.969C9.431,4.969 8.969,5.431 8.969,6L8.969,16C8.969,16.569 9.431,17.031 10,17.031L20,17.031C20.569,17.031 21.031,16.569 21.031,16L21.031,6Z"/>
    <g transform="matrix(1.90297,0,0,1.90297,-7.78889,-9.02005)">
        <g transform="matrix(4.18814,0,0,4.18814,15.0532,12)">
        </g>
        <text x="9px" y="12px" style="font-family:'Arial-BoldMT', 'Arial', sans-serif;font-weight:700;font-size:4.188px;">4:3</text>
    </g>
</svg>
